<mxfile host="app.diagrams.net" modified="2021-05-19T21:01:52.373Z" agent="5.0 (Macintosh; Intel Mac OS X 10_15_7) AppleWebKit/537.36 (KHTML, like Gecko) Chrome/90.0.4430.93 Safari/537.36" etag="bI9BGhr_RD_QMCL0jdcg" version="14.6.6" type="gitlab">
  <diagram id="83rm9NZmXlsieEd2IdBL" name="Page-1">
    <mxGraphModel dx="1665" dy="1563" grid="1" gridSize="10" guides="1" tooltips="1" connect="1" arrows="1" fold="1" page="1" pageScale="1" pageWidth="850" pageHeight="1100" math="0" shadow="0">
      <root>
        <mxCell id="0" />
        <mxCell id="1" parent="0" />
        <mxCell id="FWeV523dbh0B6TjXKs8V-5" value="" style="aspect=fixed;perimeter=ellipsePerimeter;html=1;align=center;shadow=0;dashed=0;spacingTop=3;image;image=img/lib/active_directory/user_accounts.svg;" parent="1" vertex="1">
          <mxGeometry x="300" y="280" width="41.24" height="40" as="geometry" />
        </mxCell>
        <mxCell id="FWeV523dbh0B6TjXKs8V-6" value="" style="shape=image;verticalLabelPosition=bottom;labelBackgroundColor=#ffffff;verticalAlign=top;aspect=fixed;imageAspect=0;image=https://www.nginx.com/wp-content/uploads/2016/04/Richardson-microservices-part4-1_difficult-service-discovery.png;" parent="1" vertex="1">
          <mxGeometry x="240" y="20" width="510" height="520" as="geometry" />
        </mxCell>
        <mxCell id="FWeV523dbh0B6TjXKs8V-7" value="" style="rounded=0;whiteSpace=wrap;html=1;strokeColor=none;" parent="1" vertex="1">
          <mxGeometry x="464" y="470" width="120" height="60" as="geometry" />
        </mxCell>
        <mxCell id="FWeV523dbh0B6TjXKs8V-12" value="/instanceA" style="text;html=1;strokeColor=none;fillColor=none;align=center;verticalAlign=middle;whiteSpace=wrap;rounded=0;" parent="1" vertex="1">
          <mxGeometry x="160" y="190" width="40" height="20" as="geometry" />
        </mxCell>
        <mxCell id="nq3pK3IxwGkN9X3UR4hc-1" value="" style="rounded=0;whiteSpace=wrap;html=1;" parent="1" vertex="1">
          <mxGeometry x="-189" y="1270" width="1070" height="1133" as="geometry" />
        </mxCell>
        <mxCell id="nq3pK3IxwGkN9X3UR4hc-2" value="" style="rounded=0;whiteSpace=wrap;html=1;" parent="1" vertex="1">
          <mxGeometry x="40" y="-60" width="760" height="560" as="geometry" />
        </mxCell>
        <mxCell id="nq3pK3IxwGkN9X3UR4hc-3" style="edgeStyle=orthogonalEdgeStyle;rounded=0;orthogonalLoop=1;jettySize=auto;html=1;exitX=0.5;exitY=1;exitDx=0;exitDy=0;entryX=0.5;entryY=0;entryDx=0;entryDy=0;endArrow=none;endFill=0;" parent="1" source="nq3pK3IxwGkN9X3UR4hc-4" target="nq3pK3IxwGkN9X3UR4hc-5" edge="1">
          <mxGeometry relative="1" as="geometry" />
        </mxCell>
        <mxCell id="nq3pK3IxwGkN9X3UR4hc-4" value="all_study" style="rounded=1;whiteSpace=wrap;html=1;" parent="1" vertex="1">
          <mxGeometry x="570" y="40" width="80" height="30" as="geometry" />
        </mxCell>
        <mxCell id="nq3pK3IxwGkN9X3UR4hc-5" value="all_participant" style="rounded=1;whiteSpace=wrap;html=1;" parent="1" vertex="1">
          <mxGeometry x="570" y="170" width="80" height="30" as="geometry" />
        </mxCell>
        <mxCell id="nq3pK3IxwGkN9X3UR4hc-6" value="part-420" style="rounded=1;whiteSpace=wrap;html=1;" parent="1" vertex="1">
          <mxGeometry x="490" y="230" width="100" height="30" as="geometry" />
        </mxCell>
        <mxCell id="nq3pK3IxwGkN9X3UR4hc-7" value="accelerometer (acc)" style="rounded=1;whiteSpace=wrap;html=1;" parent="1" vertex="1">
          <mxGeometry x="350" y="310" width="120" height="30" as="geometry" />
        </mxCell>
        <mxCell id="nq3pK3IxwGkN9X3UR4hc-8" style="edgeStyle=orthogonalEdgeStyle;rounded=0;orthogonalLoop=1;jettySize=auto;html=1;exitX=0.5;exitY=1;exitDx=0;exitDy=0;entryX=0.5;entryY=0;entryDx=0;entryDy=0;startArrow=none;startFill=0;endArrow=none;endFill=0;" parent="1" source="nq3pK3IxwGkN9X3UR4hc-9" target="nq3pK3IxwGkN9X3UR4hc-101" edge="1">
          <mxGeometry relative="1" as="geometry" />
        </mxCell>
        <mxCell id="nq3pK3IxwGkN9X3UR4hc-9" value="motion_sense" style="rounded=1;whiteSpace=wrap;html=1;" parent="1" vertex="1">
          <mxGeometry x="300" y="380" width="90" height="30" as="geometry" />
        </mxCell>
        <mxCell id="nq3pK3IxwGkN9X3UR4hc-10" value="phone" style="rounded=1;whiteSpace=wrap;html=1;" parent="1" vertex="1">
          <mxGeometry x="430" y="380" width="90" height="30" as="geometry" />
        </mxCell>
        <mxCell id="nq3pK3IxwGkN9X3UR4hc-11" value="" style="endArrow=none;html=1;entryX=0.5;entryY=1;entryDx=0;entryDy=0;exitX=0.5;exitY=0;exitDx=0;exitDy=0;" parent="1" source="nq3pK3IxwGkN9X3UR4hc-9" target="nq3pK3IxwGkN9X3UR4hc-7" edge="1">
          <mxGeometry width="50" height="50" relative="1" as="geometry">
            <mxPoint x="390" y="400" as="sourcePoint" />
            <mxPoint x="440" y="350" as="targetPoint" />
          </mxGeometry>
        </mxCell>
        <mxCell id="nq3pK3IxwGkN9X3UR4hc-12" value="" style="endArrow=none;html=1;entryX=0.5;entryY=1;entryDx=0;entryDy=0;exitX=0.5;exitY=0;exitDx=0;exitDy=0;" parent="1" source="nq3pK3IxwGkN9X3UR4hc-10" target="nq3pK3IxwGkN9X3UR4hc-7" edge="1">
          <mxGeometry width="50" height="50" relative="1" as="geometry">
            <mxPoint x="355" y="390" as="sourcePoint" />
            <mxPoint x="420" y="350" as="targetPoint" />
          </mxGeometry>
        </mxCell>
        <mxCell id="nq3pK3IxwGkN9X3UR4hc-13" value="gyro" style="rounded=1;whiteSpace=wrap;html=1;" parent="1" vertex="1">
          <mxGeometry x="600" y="312.5" width="120" height="30" as="geometry" />
        </mxCell>
        <mxCell id="nq3pK3IxwGkN9X3UR4hc-14" value="" style="endArrow=none;html=1;entryX=0.5;entryY=1;entryDx=0;entryDy=0;exitX=0.5;exitY=0;exitDx=0;exitDy=0;" parent="1" source="nq3pK3IxwGkN9X3UR4hc-7" edge="1">
          <mxGeometry width="50" height="50" relative="1" as="geometry">
            <mxPoint x="355" y="390" as="sourcePoint" />
            <mxPoint x="540" y="260" as="targetPoint" />
          </mxGeometry>
        </mxCell>
        <mxCell id="nq3pK3IxwGkN9X3UR4hc-15" value="" style="endArrow=none;html=1;exitX=0.5;exitY=0;exitDx=0;exitDy=0;" parent="1" source="nq3pK3IxwGkN9X3UR4hc-13" edge="1">
          <mxGeometry width="50" height="50" relative="1" as="geometry">
            <mxPoint x="420" y="320" as="sourcePoint" />
            <mxPoint x="540" y="260" as="targetPoint" />
          </mxGeometry>
        </mxCell>
        <mxCell id="nq3pK3IxwGkN9X3UR4hc-16" value="" style="endArrow=none;html=1;exitX=0.5;exitY=0;exitDx=0;exitDy=0;entryX=0.5;entryY=1;entryDx=0;entryDy=0;" parent="1" source="nq3pK3IxwGkN9X3UR4hc-6" target="nq3pK3IxwGkN9X3UR4hc-5" edge="1">
          <mxGeometry width="50" height="50" relative="1" as="geometry">
            <mxPoint x="560" y="240" as="sourcePoint" />
            <mxPoint x="610" y="190" as="targetPoint" />
          </mxGeometry>
        </mxCell>
        <mxCell id="nq3pK3IxwGkN9X3UR4hc-17" value="part-141" style="rounded=1;whiteSpace=wrap;html=1;" parent="1" vertex="1">
          <mxGeometry x="640" y="230" width="100" height="30" as="geometry" />
        </mxCell>
        <mxCell id="nq3pK3IxwGkN9X3UR4hc-18" value="" style="endArrow=none;html=1;exitX=0.5;exitY=0;exitDx=0;exitDy=0;entryX=0.5;entryY=1;entryDx=0;entryDy=0;" parent="1" source="nq3pK3IxwGkN9X3UR4hc-17" target="nq3pK3IxwGkN9X3UR4hc-5" edge="1">
          <mxGeometry width="50" height="50" relative="1" as="geometry">
            <mxPoint x="550" y="240" as="sourcePoint" />
            <mxPoint x="590" y="200" as="targetPoint" />
          </mxGeometry>
        </mxCell>
        <mxCell id="nq3pK3IxwGkN9X3UR4hc-19" value="" style="rounded=0;whiteSpace=wrap;html=1;" parent="1" vertex="1">
          <mxGeometry x="40" y="660" width="760" height="455" as="geometry" />
        </mxCell>
        <mxCell id="nq3pK3IxwGkN9X3UR4hc-20" style="edgeStyle=orthogonalEdgeStyle;rounded=0;orthogonalLoop=1;jettySize=auto;html=1;exitX=0.5;exitY=1;exitDx=0;exitDy=0;entryX=0.5;entryY=0;entryDx=0;entryDy=0;endArrow=none;endFill=0;" parent="1" target="nq3pK3IxwGkN9X3UR4hc-22" edge="1">
          <mxGeometry relative="1" as="geometry">
            <mxPoint x="170" y="720" as="sourcePoint" />
          </mxGeometry>
        </mxCell>
        <mxCell id="nq3pK3IxwGkN9X3UR4hc-21" style="edgeStyle=orthogonalEdgeStyle;rounded=0;orthogonalLoop=1;jettySize=auto;html=1;exitX=0.5;exitY=1;exitDx=0;exitDy=0;entryX=0.5;entryY=0;entryDx=0;entryDy=0;endArrow=none;endFill=0;" parent="1" source="nq3pK3IxwGkN9X3UR4hc-22" edge="1">
          <mxGeometry relative="1" as="geometry">
            <mxPoint x="170" y="840" as="targetPoint" />
          </mxGeometry>
        </mxCell>
        <mxCell id="nq3pK3IxwGkN9X3UR4hc-22" value="(study)" style="rounded=1;whiteSpace=wrap;html=1;" parent="1" vertex="1">
          <mxGeometry x="130" y="770" width="80" height="30" as="geometry" />
        </mxCell>
        <mxCell id="nq3pK3IxwGkN9X3UR4hc-23" style="edgeStyle=orthogonalEdgeStyle;rounded=0;orthogonalLoop=1;jettySize=auto;html=1;exitX=0.5;exitY=1;exitDx=0;exitDy=0;entryX=0.5;entryY=0;entryDx=0;entryDy=0;endArrow=none;endFill=0;" parent="1" edge="1">
          <mxGeometry relative="1" as="geometry">
            <mxPoint x="170" y="870" as="sourcePoint" />
            <mxPoint x="170" y="900" as="targetPoint" />
          </mxGeometry>
        </mxCell>
        <mxCell id="nq3pK3IxwGkN9X3UR4hc-24" style="edgeStyle=orthogonalEdgeStyle;rounded=0;orthogonalLoop=1;jettySize=auto;html=1;exitX=0.5;exitY=1;exitDx=0;exitDy=0;entryX=0.5;entryY=0;entryDx=0;entryDy=0;endArrow=none;endFill=0;" parent="1" source="nq3pK3IxwGkN9X3UR4hc-25" target="nq3pK3IxwGkN9X3UR4hc-26" edge="1">
          <mxGeometry relative="1" as="geometry" />
        </mxCell>
        <mxCell id="nq3pK3IxwGkN9X3UR4hc-25" value="md2k" style="rounded=1;whiteSpace=wrap;html=1;" parent="1" vertex="1">
          <mxGeometry x="570" y="685" width="80" height="30" as="geometry" />
        </mxCell>
        <mxCell id="nq3pK3IxwGkN9X3UR4hc-26" value="studyA" style="rounded=1;whiteSpace=wrap;html=1;" parent="1" vertex="1">
          <mxGeometry x="570" y="775" width="80" height="30" as="geometry" />
        </mxCell>
        <mxCell id="nq3pK3IxwGkN9X3UR4hc-27" value="accelerometer (acc)" style="rounded=1;whiteSpace=wrap;html=1;" parent="1" vertex="1">
          <mxGeometry x="480" y="845" width="120" height="30" as="geometry" />
        </mxCell>
        <mxCell id="nq3pK3IxwGkN9X3UR4hc-28" value="&amp;nbsp;part-420" style="rounded=1;whiteSpace=wrap;html=1;" parent="1" vertex="1">
          <mxGeometry x="350" y="925" width="120" height="30" as="geometry" />
        </mxCell>
        <mxCell id="nq3pK3IxwGkN9X3UR4hc-29" style="edgeStyle=orthogonalEdgeStyle;rounded=0;orthogonalLoop=1;jettySize=auto;html=1;exitX=0.5;exitY=1;exitDx=0;exitDy=0;entryX=0.5;entryY=0;entryDx=0;entryDy=0;endArrow=none;endFill=0;" parent="1" edge="1">
          <mxGeometry relative="1" as="geometry">
            <mxPoint x="345" y="1025" as="sourcePoint" />
          </mxGeometry>
        </mxCell>
        <mxCell id="nq3pK3IxwGkN9X3UR4hc-30" style="edgeStyle=orthogonalEdgeStyle;rounded=0;orthogonalLoop=1;jettySize=auto;html=1;exitX=0.5;exitY=1;exitDx=0;exitDy=0;entryX=0.5;entryY=0;entryDx=0;entryDy=0;endArrow=none;endFill=0;" parent="1" edge="1">
          <mxGeometry relative="1" as="geometry">
            <mxPoint x="475" y="1025" as="sourcePoint" />
          </mxGeometry>
        </mxCell>
        <mxCell id="nq3pK3IxwGkN9X3UR4hc-31" value="part-141" style="rounded=1;whiteSpace=wrap;html=1;" parent="1" vertex="1">
          <mxGeometry x="600" y="927.5" width="120" height="30" as="geometry" />
        </mxCell>
        <mxCell id="nq3pK3IxwGkN9X3UR4hc-32" style="edgeStyle=orthogonalEdgeStyle;rounded=0;orthogonalLoop=1;jettySize=auto;html=1;exitX=0.5;exitY=1;exitDx=0;exitDy=0;entryX=0.5;entryY=0;entryDx=0;entryDy=0;endArrow=none;endFill=0;" parent="1" edge="1">
          <mxGeometry relative="1" as="geometry">
            <mxPoint x="725" y="1027.5" as="sourcePoint" />
          </mxGeometry>
        </mxCell>
        <mxCell id="nq3pK3IxwGkN9X3UR4hc-33" value="" style="endArrow=none;html=1;entryX=0.5;entryY=1;entryDx=0;entryDy=0;exitX=0.5;exitY=0;exitDx=0;exitDy=0;" parent="1" source="nq3pK3IxwGkN9X3UR4hc-28" edge="1">
          <mxGeometry width="50" height="50" relative="1" as="geometry">
            <mxPoint x="355" y="1005" as="sourcePoint" />
            <mxPoint x="540" y="875" as="targetPoint" />
          </mxGeometry>
        </mxCell>
        <mxCell id="nq3pK3IxwGkN9X3UR4hc-34" value="" style="endArrow=none;html=1;exitX=0.5;exitY=0;exitDx=0;exitDy=0;" parent="1" source="nq3pK3IxwGkN9X3UR4hc-31" edge="1">
          <mxGeometry width="50" height="50" relative="1" as="geometry">
            <mxPoint x="420" y="935" as="sourcePoint" />
            <mxPoint x="540" y="875" as="targetPoint" />
          </mxGeometry>
        </mxCell>
        <mxCell id="nq3pK3IxwGkN9X3UR4hc-35" value="" style="endArrow=none;html=1;exitX=0.5;exitY=0;exitDx=0;exitDy=0;entryX=0.5;entryY=1;entryDx=0;entryDy=0;" parent="1" source="nq3pK3IxwGkN9X3UR4hc-27" target="nq3pK3IxwGkN9X3UR4hc-26" edge="1">
          <mxGeometry width="50" height="50" relative="1" as="geometry">
            <mxPoint x="560" y="855" as="sourcePoint" />
            <mxPoint x="610" y="805" as="targetPoint" />
          </mxGeometry>
        </mxCell>
        <mxCell id="nq3pK3IxwGkN9X3UR4hc-36" value="gyro" style="rounded=1;whiteSpace=wrap;html=1;" parent="1" vertex="1">
          <mxGeometry x="640" y="845" width="100" height="30" as="geometry" />
        </mxCell>
        <mxCell id="nq3pK3IxwGkN9X3UR4hc-37" value="" style="endArrow=none;html=1;exitX=0.5;exitY=0;exitDx=0;exitDy=0;entryX=0.5;entryY=1;entryDx=0;entryDy=0;" parent="1" source="nq3pK3IxwGkN9X3UR4hc-36" target="nq3pK3IxwGkN9X3UR4hc-26" edge="1">
          <mxGeometry width="50" height="50" relative="1" as="geometry">
            <mxPoint x="550" y="855" as="sourcePoint" />
            <mxPoint x="590" y="815" as="targetPoint" />
          </mxGeometry>
        </mxCell>
        <mxCell id="nq3pK3IxwGkN9X3UR4hc-38" value="&lt;b&gt;RAW &lt;br&gt;STREAMS&lt;br&gt;&lt;br&gt;&lt;/b&gt;" style="shape=cylinder3;whiteSpace=wrap;html=1;boundedLbl=1;backgroundOutline=1;size=15;fillColor=#dae8fc;strokeColor=#6c8ebf;" parent="1" vertex="1">
          <mxGeometry x="110" y="1493" width="100" height="113.5" as="geometry" />
        </mxCell>
        <mxCell id="nq3pK3IxwGkN9X3UR4hc-39" value="Data storage&amp;nbsp;&lt;br&gt;unit (DSU)" style="shape=cylinder3;whiteSpace=wrap;html=1;boundedLbl=1;backgroundOutline=1;size=15;fillColor=#dae8fc;strokeColor=#6c8ebf;" parent="1" vertex="1">
          <mxGeometry x="490" y="1340" width="80" height="87.27" as="geometry" />
        </mxCell>
        <mxCell id="nq3pK3IxwGkN9X3UR4hc-40" style="edgeStyle=orthogonalEdgeStyle;rounded=0;orthogonalLoop=1;jettySize=auto;html=1;exitX=0.5;exitY=1;exitDx=0;exitDy=0;entryX=0.5;entryY=1;entryDx=0;entryDy=0;dashed=1;dashPattern=1 1;startArrow=none;startFill=0;endArrow=none;endFill=0;" parent="1" source="nq3pK3IxwGkN9X3UR4hc-41" target="nq3pK3IxwGkN9X3UR4hc-64" edge="1">
          <mxGeometry relative="1" as="geometry" />
        </mxCell>
        <mxCell id="nq3pK3IxwGkN9X3UR4hc-41" value="Policy Parser&lt;br&gt;(generate topics)" style="rounded=0;whiteSpace=wrap;html=1;fillColor=#f5f5f5;strokeColor=#666666;fontColor=#333333;" parent="1" vertex="1">
          <mxGeometry x="300" y="1669" width="120" height="60" as="geometry" />
        </mxCell>
        <mxCell id="nq3pK3IxwGkN9X3UR4hc-42" value="" style="endArrow=blockThin;html=1;entryX=0;entryY=0.5;entryDx=0;entryDy=0;exitX=1;exitY=0.5;exitDx=0;exitDy=0;endFill=1;" parent="1" source="nq3pK3IxwGkN9X3UR4hc-43" target="nq3pK3IxwGkN9X3UR4hc-41" edge="1">
          <mxGeometry width="50" height="50" relative="1" as="geometry">
            <mxPoint x="310" y="1779" as="sourcePoint" />
            <mxPoint x="360" y="1729" as="targetPoint" />
          </mxGeometry>
        </mxCell>
        <mxCell id="nq3pK3IxwGkN9X3UR4hc-43" value="&lt;b&gt;Policies&lt;br&gt;opt: Attributes&lt;/b&gt;" style="rounded=1;whiteSpace=wrap;html=1;" parent="1" vertex="1">
          <mxGeometry x="140" y="1679" width="111" height="40" as="geometry" />
        </mxCell>
        <mxCell id="nq3pK3IxwGkN9X3UR4hc-44" value="&lt;b&gt;ndnDataAdaptor&amp;nbsp; &amp;nbsp; &amp;nbsp; &amp;nbsp; &amp;nbsp; &amp;nbsp; &amp;nbsp; &amp;nbsp; &amp;nbsp; &amp;nbsp; &amp;nbsp; &amp;nbsp; &amp;nbsp; &amp;nbsp; &amp;nbsp; &amp;nbsp; &amp;nbsp; &amp;nbsp; &amp;nbsp; &amp;nbsp; &amp;nbsp; &amp;nbsp; &amp;nbsp; &amp;nbsp; &amp;nbsp; &amp;nbsp; &amp;nbsp; &amp;nbsp; &amp;nbsp; &amp;nbsp; &amp;nbsp; &amp;nbsp; &amp;nbsp; &amp;nbsp; &amp;nbsp; &amp;nbsp; &amp;nbsp; &amp;nbsp; &amp;nbsp; &amp;nbsp; &amp;nbsp; &amp;nbsp; &amp;nbsp; &amp;nbsp;&lt;br&gt;&lt;/b&gt;&lt;b&gt;&lt;br&gt;&lt;br&gt;&lt;br&gt;&lt;br&gt;&lt;br&gt;&lt;br&gt;&lt;br&gt;&lt;br&gt;&lt;br&gt;&lt;br&gt;&lt;br&gt;&lt;/b&gt;" style="rounded=0;whiteSpace=wrap;html=1;" parent="1" vertex="1">
          <mxGeometry x="270" y="1460" width="410" height="175" as="geometry" />
        </mxCell>
        <mxCell id="nq3pK3IxwGkN9X3UR4hc-45" style="edgeStyle=orthogonalEdgeStyle;rounded=0;orthogonalLoop=1;jettySize=auto;html=1;exitX=0;exitY=0.5;exitDx=0;exitDy=0;startArrow=blockThin;startFill=1;endArrow=blockThin;endFill=1;" parent="1" source="nq3pK3IxwGkN9X3UR4hc-47" target="nq3pK3IxwGkN9X3UR4hc-38" edge="1">
          <mxGeometry relative="1" as="geometry" />
        </mxCell>
        <mxCell id="nq3pK3IxwGkN9X3UR4hc-46" value="(3)&lt;br&gt;(query)" style="edgeLabel;html=1;align=center;verticalAlign=middle;resizable=0;points=[];" parent="nq3pK3IxwGkN9X3UR4hc-45" vertex="1" connectable="0">
          <mxGeometry x="0.3865" relative="1" as="geometry">
            <mxPoint x="7.5" y="-14.5" as="offset" />
          </mxGeometry>
        </mxCell>
        <mxCell id="nq3pK3IxwGkN9X3UR4hc-47" value="Data Processing&amp;nbsp;&lt;br&gt;Unit (DPU)" style="rounded=0;whiteSpace=wrap;html=1;dashed=1;fillColor=#f5f5f5;strokeColor=#666666;fontColor=#333333;" parent="1" vertex="1">
          <mxGeometry x="285" y="1529.5" width="105" height="40" as="geometry" />
        </mxCell>
        <mxCell id="nq3pK3IxwGkN9X3UR4hc-48" style="edgeStyle=orthogonalEdgeStyle;rounded=0;orthogonalLoop=1;jettySize=auto;html=1;exitX=0.5;exitY=0;exitDx=0;exitDy=0;startArrow=classic;startFill=1;endArrow=blockThin;endFill=1;" parent="1" source="nq3pK3IxwGkN9X3UR4hc-67" target="nq3pK3IxwGkN9X3UR4hc-66" edge="1">
          <mxGeometry relative="1" as="geometry">
            <mxPoint x="646.5" y="1514" as="targetPoint" />
          </mxGeometry>
        </mxCell>
        <mxCell id="nq3pK3IxwGkN9X3UR4hc-49" value="fetch data&lt;br&gt;&amp;nbsp;names" style="edgeLabel;html=1;align=center;verticalAlign=middle;resizable=0;points=[];" parent="nq3pK3IxwGkN9X3UR4hc-48" vertex="1" connectable="0">
          <mxGeometry x="0.2232" y="1" relative="1" as="geometry">
            <mxPoint x="1" y="47" as="offset" />
          </mxGeometry>
        </mxCell>
        <mxCell id="nq3pK3IxwGkN9X3UR4hc-50" style="edgeStyle=orthogonalEdgeStyle;rounded=0;orthogonalLoop=1;jettySize=auto;html=1;exitX=0;exitY=0.5;exitDx=0;exitDy=0;entryX=1;entryY=0.5;entryDx=0;entryDy=0;startArrow=blockThin;startFill=1;endArrow=blockThin;endFill=1;" parent="1" source="nq3pK3IxwGkN9X3UR4hc-59" target="nq3pK3IxwGkN9X3UR4hc-47" edge="1">
          <mxGeometry relative="1" as="geometry" />
        </mxCell>
        <mxCell id="nq3pK3IxwGkN9X3UR4hc-51" style="edgeStyle=orthogonalEdgeStyle;rounded=0;orthogonalLoop=1;jettySize=auto;html=1;exitX=0.5;exitY=0;exitDx=0;exitDy=0;entryX=0.5;entryY=1;entryDx=0;entryDy=0;entryPerimeter=0;startArrow=none;startFill=0;endArrow=blockThin;endFill=1;" parent="1" source="nq3pK3IxwGkN9X3UR4hc-59" target="nq3pK3IxwGkN9X3UR4hc-39" edge="1">
          <mxGeometry relative="1" as="geometry" />
        </mxCell>
        <mxCell id="nq3pK3IxwGkN9X3UR4hc-52" value="store encrypted&lt;br&gt;content&lt;br&gt;(6)" style="edgeLabel;html=1;align=center;verticalAlign=middle;resizable=0;points=[];" parent="nq3pK3IxwGkN9X3UR4hc-51" vertex="1" connectable="0">
          <mxGeometry x="-0.1197" relative="1" as="geometry">
            <mxPoint y="-20" as="offset" />
          </mxGeometry>
        </mxCell>
        <mxCell id="nq3pK3IxwGkN9X3UR4hc-53" style="edgeStyle=orthogonalEdgeStyle;rounded=0;orthogonalLoop=1;jettySize=auto;html=1;exitX=0.25;exitY=1;exitDx=0;exitDy=0;entryX=1;entryY=0.5;entryDx=0;entryDy=0;startArrow=blockThin;startFill=1;endArrow=blockThin;endFill=1;" parent="1" source="nq3pK3IxwGkN9X3UR4hc-59" target="nq3pK3IxwGkN9X3UR4hc-63" edge="1">
          <mxGeometry relative="1" as="geometry" />
        </mxCell>
        <mxCell id="nq3pK3IxwGkN9X3UR4hc-54" value="(4)&lt;br&gt;construct &lt;br&gt;data names" style="edgeLabel;html=1;align=center;verticalAlign=middle;resizable=0;points=[];" parent="nq3pK3IxwGkN9X3UR4hc-53" vertex="1" connectable="0">
          <mxGeometry x="-0.3248" y="2" relative="1" as="geometry">
            <mxPoint x="-32" y="-8" as="offset" />
          </mxGeometry>
        </mxCell>
        <mxCell id="nq3pK3IxwGkN9X3UR4hc-55" style="edgeStyle=orthogonalEdgeStyle;rounded=0;orthogonalLoop=1;jettySize=auto;html=1;exitX=0.75;exitY=1;exitDx=0;exitDy=0;entryX=0;entryY=0.5;entryDx=0;entryDy=0;startArrow=blockThin;startFill=1;endArrow=blockThin;endFill=1;" parent="1" source="nq3pK3IxwGkN9X3UR4hc-59" target="nq3pK3IxwGkN9X3UR4hc-64" edge="1">
          <mxGeometry relative="1" as="geometry">
            <mxPoint x="555" y="1556.5" as="sourcePoint" />
          </mxGeometry>
        </mxCell>
        <mxCell id="nq3pK3IxwGkN9X3UR4hc-56" value="(5)&lt;br&gt;Fetch&lt;br&gt;encryption&lt;br&gt;keys" style="edgeLabel;html=1;align=center;verticalAlign=middle;resizable=0;points=[];" parent="nq3pK3IxwGkN9X3UR4hc-55" vertex="1" connectable="0">
          <mxGeometry x="-0.2417" relative="1" as="geometry">
            <mxPoint x="3" as="offset" />
          </mxGeometry>
        </mxCell>
        <mxCell id="nq3pK3IxwGkN9X3UR4hc-57" style="edgeStyle=orthogonalEdgeStyle;rounded=0;orthogonalLoop=1;jettySize=auto;html=1;exitX=0.75;exitY=0;exitDx=0;exitDy=0;entryX=0.5;entryY=1;entryDx=0;entryDy=0;entryPerimeter=0;startArrow=none;startFill=0;endArrow=none;endFill=0;" parent="1" source="nq3pK3IxwGkN9X3UR4hc-59" target="nq3pK3IxwGkN9X3UR4hc-66" edge="1">
          <mxGeometry relative="1" as="geometry">
            <mxPoint x="564" y="1532.5" as="sourcePoint" />
            <Array as="points">
              <mxPoint x="555" y="1500" />
              <mxPoint x="646" y="1500" />
            </Array>
          </mxGeometry>
        </mxCell>
        <mxCell id="nq3pK3IxwGkN9X3UR4hc-58" value="(7)&lt;br&gt;store&amp;nbsp;&lt;br&gt;data names" style="edgeLabel;html=1;align=center;verticalAlign=middle;resizable=0;points=[];" parent="nq3pK3IxwGkN9X3UR4hc-57" vertex="1" connectable="0">
          <mxGeometry x="-0.4445" y="-1" relative="1" as="geometry">
            <mxPoint x="-12.5" y="5" as="offset" />
          </mxGeometry>
        </mxCell>
        <mxCell id="nq3pK3IxwGkN9X3UR4hc-59" value="&lt;b&gt;DataAdaptor&lt;br&gt;(engine)&lt;br&gt;&lt;/b&gt;" style="text;html=1;align=center;verticalAlign=middle;whiteSpace=wrap;rounded=0;strokeColor=#d6b656;fillColor=#fff2cc;" parent="1" vertex="1">
          <mxGeometry x="480" y="1532.5" width="100" height="35" as="geometry" />
        </mxCell>
        <mxCell id="nq3pK3IxwGkN9X3UR4hc-60" style="edgeStyle=orthogonalEdgeStyle;rounded=0;orthogonalLoop=1;jettySize=auto;html=1;exitX=1;exitY=0.5;exitDx=0;exitDy=0;startArrow=blockThin;startFill=1;endArrow=blockThin;endFill=1;" parent="1" source="nq3pK3IxwGkN9X3UR4hc-41" target="nq3pK3IxwGkN9X3UR4hc-59" edge="1">
          <mxGeometry relative="1" as="geometry">
            <mxPoint x="470" y="1590.5" as="sourcePoint" />
            <mxPoint x="530" y="1570" as="targetPoint" />
          </mxGeometry>
        </mxCell>
        <mxCell id="nq3pK3IxwGkN9X3UR4hc-61" value="(1) &lt;br&gt;get topic&lt;br&gt;name" style="edgeLabel;html=1;align=center;verticalAlign=middle;resizable=0;points=[];" parent="nq3pK3IxwGkN9X3UR4hc-60" vertex="1" connectable="0">
          <mxGeometry x="-0.4814" relative="1" as="geometry">
            <mxPoint y="-6" as="offset" />
          </mxGeometry>
        </mxCell>
        <mxCell id="nq3pK3IxwGkN9X3UR4hc-62" value="(2)&lt;br&gt;request &lt;br&gt;stream/s" style="edgeLabel;html=1;align=center;verticalAlign=middle;resizable=0;points=[];" parent="1" vertex="1" connectable="0">
          <mxGeometry x="437.9969111275925" y="1531.996671407368" as="geometry">
            <mxPoint x="1" y="-2" as="offset" />
          </mxGeometry>
        </mxCell>
        <mxCell id="nq3pK3IxwGkN9X3UR4hc-63" value="Name Tree" style="rounded=0;whiteSpace=wrap;html=1;fillColor=#dae8fc;strokeColor=#6c8ebf;" parent="1" vertex="1">
          <mxGeometry x="350" y="1580" width="53.5" height="45" as="geometry" />
        </mxCell>
        <mxCell id="nq3pK3IxwGkN9X3UR4hc-64" value="Access Manager" style="rounded=0;whiteSpace=wrap;html=1;strokeColor=#666666;fillColor=#f5f5f5;fontColor=#333333;" parent="1" vertex="1">
          <mxGeometry x="590" y="1669" width="120" height="60" as="geometry" />
        </mxCell>
        <mxCell id="nq3pK3IxwGkN9X3UR4hc-65" value="&lt;p style=&quot;line-height: 40%&quot;&gt;&lt;/p&gt;&lt;blockquote style=&quot;margin: 0 0 0 40px ; border: none ; padding: 0px&quot;&gt;&lt;/blockquote&gt;&lt;pre style=&quot;font-size: 8px&quot;&gt;- battery&lt;br&gt;- gyro&lt;br&gt;- accelerometer&lt;/pre&gt;&lt;blockquote style=&quot;margin: 0 0 0 40px ; border: none ; padding: 0px&quot;&gt;&lt;/blockquote&gt;&lt;p&gt;&lt;/p&gt;" style="text;html=1;strokeColor=none;fillColor=none;align=left;verticalAlign=middle;whiteSpace=wrap;rounded=0;" parent="1" vertex="1">
          <mxGeometry x="117" y="1562.5" width="83" height="45" as="geometry" />
        </mxCell>
        <mxCell id="nq3pK3IxwGkN9X3UR4hc-66" value="&lt;span&gt;&lt;br&gt;&lt;br&gt;substream&lt;/span&gt;&lt;br&gt;&lt;span&gt;metadata&lt;/span&gt;&lt;br&gt;" style="shape=card;whiteSpace=wrap;html=1;fillColor=#dae8fc;strokeColor=#6c8ebf;" parent="1" vertex="1">
          <mxGeometry x="615.75" y="1369" width="60" height="63.63" as="geometry" />
        </mxCell>
        <mxCell id="nq3pK3IxwGkN9X3UR4hc-67" value="Request&lt;br&gt;Handler" style="rounded=0;whiteSpace=wrap;html=1;fillColor=#f5f5f5;strokeColor=#666666;fontColor=#333333;" parent="1" vertex="1">
          <mxGeometry x="619" y="1580" width="53.5" height="45" as="geometry" />
        </mxCell>
        <mxCell id="nq3pK3IxwGkN9X3UR4hc-68" style="edgeStyle=orthogonalEdgeStyle;rounded=0;orthogonalLoop=1;jettySize=auto;html=1;exitX=1;exitY=0;exitDx=0;exitDy=57.9525;exitPerimeter=0;entryX=0;entryY=0.5;entryDx=0;entryDy=0;dashed=1;startArrow=blockThin;startFill=1;endArrow=blockThin;endFill=1;dashPattern=1 1;" parent="1" source="nq3pK3IxwGkN9X3UR4hc-39" target="nq3pK3IxwGkN9X3UR4hc-67" edge="1">
          <mxGeometry relative="1" as="geometry">
            <Array as="points">
              <mxPoint x="600" y="1398" />
              <mxPoint x="600" y="1603" />
            </Array>
          </mxGeometry>
        </mxCell>
        <mxCell id="nq3pK3IxwGkN9X3UR4hc-69" value="get data" style="edgeLabel;html=1;align=center;verticalAlign=middle;resizable=0;points=[];" parent="nq3pK3IxwGkN9X3UR4hc-68" vertex="1" connectable="0">
          <mxGeometry x="-0.2549" relative="1" as="geometry">
            <mxPoint y="14" as="offset" />
          </mxGeometry>
        </mxCell>
        <mxCell id="nq3pK3IxwGkN9X3UR4hc-70" value="&lt;b&gt;&amp;nbsp; mGuardServer&amp;nbsp; &amp;nbsp; &amp;nbsp; &amp;nbsp; &amp;nbsp; &amp;nbsp; &amp;nbsp; &amp;nbsp; &amp;nbsp; &amp;nbsp; &amp;nbsp; &amp;nbsp; &amp;nbsp; &amp;nbsp; &amp;nbsp; &amp;nbsp; &amp;nbsp; &amp;nbsp; &amp;nbsp; &amp;nbsp; &amp;nbsp; &amp;nbsp;&amp;nbsp;&lt;br&gt;&lt;br&gt;&lt;br&gt;&lt;br&gt;&lt;br&gt;&lt;br&gt;&lt;br&gt;\&lt;br&gt;&lt;br&gt;&lt;br&gt;&lt;br&gt;&lt;br&gt;&lt;br&gt;&lt;br&gt;&lt;br&gt;&lt;/b&gt;" style="rounded=0;whiteSpace=wrap;html=1;" parent="1" vertex="1">
          <mxGeometry x="60" y="1870" width="250" height="210" as="geometry" />
        </mxCell>
        <mxCell id="nq3pK3IxwGkN9X3UR4hc-71" style="edgeStyle=orthogonalEdgeStyle;rounded=0;orthogonalLoop=1;jettySize=auto;html=1;exitX=0;exitY=0.75;exitDx=0;exitDy=0;entryX=0.929;entryY=0.57;entryDx=0;entryDy=0;entryPerimeter=0;startArrow=blockThin;startFill=1;endArrow=none;endFill=0;" parent="1" source="nq3pK3IxwGkN9X3UR4hc-72" target="nq3pK3IxwGkN9X3UR4hc-87" edge="1">
          <mxGeometry relative="1" as="geometry" />
        </mxCell>
        <mxCell id="nq3pK3IxwGkN9X3UR4hc-72" value="&lt;br&gt;&lt;br&gt;&lt;br&gt;&lt;br&gt;&lt;b&gt;&amp;nbsp;Data User&amp;nbsp; &amp;nbsp; &amp;nbsp; &amp;nbsp; &amp;nbsp; &amp;nbsp;&lt;/b&gt;" style="rounded=0;whiteSpace=wrap;html=1;" parent="1" vertex="1">
          <mxGeometry x="665" y="1919.5" width="75" height="60" as="geometry" />
        </mxCell>
        <mxCell id="nq3pK3IxwGkN9X3UR4hc-73" value="Access Manager" style="rounded=0;whiteSpace=wrap;html=1;strokeColor=#666666;fillColor=#f5f5f5;fontColor=#333333;" parent="1" vertex="1">
          <mxGeometry x="240" y="2042.69" width="67" height="28.31" as="geometry" />
        </mxCell>
        <mxCell id="nq3pK3IxwGkN9X3UR4hc-74" value="Publisher" style="rounded=0;whiteSpace=wrap;html=1;strokeColor=#666666;fillColor=#f5f5f5;fontColor=#333333;" parent="1" vertex="1">
          <mxGeometry x="240" y="1994.69" width="67" height="28.31" as="geometry" />
        </mxCell>
        <mxCell id="nq3pK3IxwGkN9X3UR4hc-75" value="" style="endArrow=classicThin;html=1;entryX=0.279;entryY=0.139;entryDx=0;entryDy=0;entryPerimeter=0;exitX=1;exitY=0.5;exitDx=0;exitDy=0;exitPerimeter=0;startArrow=classicThin;startFill=1;endFill=1;" parent="1" source="nq3pK3IxwGkN9X3UR4hc-127" target="nq3pK3IxwGkN9X3UR4hc-87" edge="1">
          <mxGeometry width="50" height="50" relative="1" as="geometry">
            <mxPoint x="293.25" y="1924.5" as="sourcePoint" />
            <mxPoint x="440.71067811865476" y="1995" as="targetPoint" />
          </mxGeometry>
        </mxCell>
        <mxCell id="nq3pK3IxwGkN9X3UR4hc-76" value="request for metadata/data" style="edgeLabel;html=1;align=center;verticalAlign=middle;resizable=0;points=[];rotation=0;" parent="nq3pK3IxwGkN9X3UR4hc-75" vertex="1" connectable="0">
          <mxGeometry x="-0.1335" y="2" relative="1" as="geometry">
            <mxPoint x="16" y="-7" as="offset" />
          </mxGeometry>
        </mxCell>
        <mxCell id="nq3pK3IxwGkN9X3UR4hc-77" value="" style="whiteSpace=wrap;html=1;aspect=fixed;fillColor=#fff2cc;strokeColor=#d6b656;" parent="1" vertex="1">
          <mxGeometry x="70" y="2009.25" width="14.5" height="14.5" as="geometry" />
        </mxCell>
        <mxCell id="nq3pK3IxwGkN9X3UR4hc-78" value="" style="whiteSpace=wrap;html=1;aspect=fixed;fillColor=#f5f5f5;strokeColor=#666666;fontColor=#333333;" parent="1" vertex="1">
          <mxGeometry x="70" y="2039.75" width="17" height="17" as="geometry" />
        </mxCell>
        <mxCell id="nq3pK3IxwGkN9X3UR4hc-79" value="" style="endArrow=none;html=1;exitX=0.101;exitY=0.319;exitDx=0;exitDy=0;exitPerimeter=0;endFill=0;startArrow=classicThin;startFill=1;entryX=0.659;entryY=0.001;entryDx=0;entryDy=0;entryPerimeter=0;" parent="1" source="nq3pK3IxwGkN9X3UR4hc-87" target="nq3pK3IxwGkN9X3UR4hc-74" edge="1">
          <mxGeometry x="0.0589" y="-23" width="50" height="50" relative="1" as="geometry">
            <mxPoint x="390" y="2050" as="sourcePoint" />
            <mxPoint x="440" y="2000" as="targetPoint" />
            <mxPoint as="offset" />
          </mxGeometry>
        </mxCell>
        <mxCell id="nq3pK3IxwGkN9X3UR4hc-80" value="" style="endArrow=classicThin;html=1;entryX=0.253;entryY=0.819;entryDx=0;entryDy=0;entryPerimeter=0;exitX=1;exitY=0.5;exitDx=0;exitDy=0;startArrow=classicThin;startFill=1;endFill=1;" parent="1" source="nq3pK3IxwGkN9X3UR4hc-73" target="nq3pK3IxwGkN9X3UR4hc-87" edge="1">
          <mxGeometry width="50" height="50" relative="1" as="geometry">
            <mxPoint x="410" y="2080" as="sourcePoint" />
            <mxPoint x="460" y="2030" as="targetPoint" />
          </mxGeometry>
        </mxCell>
        <mxCell id="nq3pK3IxwGkN9X3UR4hc-81" value="request for keys" style="edgeLabel;html=1;align=center;verticalAlign=middle;resizable=0;points=[];rotation=-20;" parent="nq3pK3IxwGkN9X3UR4hc-80" vertex="1" connectable="0">
          <mxGeometry x="-0.2952" y="2" relative="1" as="geometry">
            <mxPoint x="14" y="-13" as="offset" />
          </mxGeometry>
        </mxCell>
        <mxCell id="nq3pK3IxwGkN9X3UR4hc-82" value="state of topics&lt;br&gt;metadata/data, keys" style="edgeLabel;html=1;align=center;verticalAlign=middle;resizable=0;points=[];" parent="1" vertex="1" connectable="0">
          <mxGeometry x="609.9985347652589" y="1979.5010773737222" as="geometry" />
        </mxCell>
        <mxCell id="nq3pK3IxwGkN9X3UR4hc-83" value="" style="shape=card;whiteSpace=wrap;html=1;fillColor=#cce5ff;strokeColor=#36393d;size=20;" parent="1" vertex="1">
          <mxGeometry x="63.58" y="1894.5" width="20" height="30" as="geometry" />
        </mxCell>
        <mxCell id="nq3pK3IxwGkN9X3UR4hc-84" value="" style="endArrow=none;html=1;exitX=0.5;exitY=0;exitDx=0;exitDy=0;" parent="1" source="nq3pK3IxwGkN9X3UR4hc-74" target="nq3pK3IxwGkN9X3UR4hc-127" edge="1">
          <mxGeometry width="50" height="50" relative="1" as="geometry">
            <mxPoint x="274" y="1990" as="sourcePoint" />
            <mxPoint x="271.5" y="1944.5" as="targetPoint" />
          </mxGeometry>
        </mxCell>
        <mxCell id="nq3pK3IxwGkN9X3UR4hc-85" value="get&amp;nbsp;data" style="edgeLabel;html=1;align=center;verticalAlign=middle;resizable=0;points=[];" parent="nq3pK3IxwGkN9X3UR4hc-84" vertex="1" connectable="0">
          <mxGeometry x="0.0999" y="-2" relative="1" as="geometry">
            <mxPoint x="-2" as="offset" />
          </mxGeometry>
        </mxCell>
        <mxCell id="nq3pK3IxwGkN9X3UR4hc-86" value="" style="group" parent="1" vertex="1" connectable="0">
          <mxGeometry x="423" y="1890" width="147" height="130" as="geometry" />
        </mxCell>
        <mxCell id="nq3pK3IxwGkN9X3UR4hc-87" value="" style="ellipse;shape=cloud;whiteSpace=wrap;html=1;fillColor=#f9f7ed;strokeColor=#36393d;" parent="nq3pK3IxwGkN9X3UR4hc-86" vertex="1">
          <mxGeometry x="-5.188235294117647" width="147" height="130" as="geometry" />
        </mxCell>
        <mxCell id="nq3pK3IxwGkN9X3UR4hc-88" value="" style="image;html=1;image=img/lib/clip_art/networking/Router_Icon_128x128.png;" parent="nq3pK3IxwGkN9X3UR4hc-86" vertex="1">
          <mxGeometry x="34.81578947368421" y="79.04838709677419" width="15.473684210526317" height="18.032258064516128" as="geometry" />
        </mxCell>
        <mxCell id="nq3pK3IxwGkN9X3UR4hc-89" value="" style="image;html=1;image=img/lib/clip_art/networking/Router_Icon_128x128.png;" parent="nq3pK3IxwGkN9X3UR4hc-86" vertex="1">
          <mxGeometry x="73.5" y="23.903225806451616" width="15.473684210526317" height="18.032258064516128" as="geometry" />
        </mxCell>
        <mxCell id="nq3pK3IxwGkN9X3UR4hc-90" value="" style="image;html=1;image=img/lib/clip_art/networking/Router_Icon_128x128.png;" parent="nq3pK3IxwGkN9X3UR4hc-86" vertex="1">
          <mxGeometry x="96.71052631578948" y="85.96774193548387" width="15.473684210526317" height="18.032258064516128" as="geometry" />
        </mxCell>
        <mxCell id="nq3pK3IxwGkN9X3UR4hc-91" value="" style="endArrow=none;html=1;entryX=0;entryY=0.75;entryDx=0;entryDy=0;exitX=0.75;exitY=0;exitDx=0;exitDy=0;opacity=50;" parent="nq3pK3IxwGkN9X3UR4hc-86" source="nq3pK3IxwGkN9X3UR4hc-88" target="nq3pK3IxwGkN9X3UR4hc-89" edge="1">
          <mxGeometry width="50" height="50" relative="1" as="geometry">
            <mxPoint x="27.078947368421055" y="184.51612903225808" as="sourcePoint" />
            <mxPoint x="65.76315789473685" y="142.5806451612903" as="targetPoint" />
          </mxGeometry>
        </mxCell>
        <mxCell id="nq3pK3IxwGkN9X3UR4hc-92" value="" style="endArrow=none;html=1;exitX=1;exitY=0.75;exitDx=0;exitDy=0;entryX=0;entryY=0.5;entryDx=0;entryDy=0;opacity=50;" parent="nq3pK3IxwGkN9X3UR4hc-86" source="nq3pK3IxwGkN9X3UR4hc-88" target="nq3pK3IxwGkN9X3UR4hc-90" edge="1">
          <mxGeometry width="50" height="50" relative="1" as="geometry">
            <mxPoint x="96.71052631578948" y="159.3548387096774" as="sourcePoint" />
            <mxPoint x="135.39473684210526" y="117.41935483870968" as="targetPoint" />
          </mxGeometry>
        </mxCell>
        <mxCell id="nq3pK3IxwGkN9X3UR4hc-93" value="" style="endArrow=none;html=1;exitX=0.5;exitY=0;exitDx=0;exitDy=0;opacity=50;" parent="nq3pK3IxwGkN9X3UR4hc-86" source="nq3pK3IxwGkN9X3UR4hc-90" target="nq3pK3IxwGkN9X3UR4hc-89" edge="1">
          <mxGeometry width="50" height="50" relative="1" as="geometry">
            <mxPoint x="61.89473684210527" y="87.64516129032259" as="sourcePoint" />
            <mxPoint x="88.97368421052632" y="53.78225806451613" as="targetPoint" />
          </mxGeometry>
        </mxCell>
        <mxCell id="nq3pK3IxwGkN9X3UR4hc-94" value="ndn&lt;br&gt;Network&lt;br&gt;&lt;br&gt;" style="text;html=1;strokeColor=none;fillColor=none;align=center;verticalAlign=middle;whiteSpace=wrap;rounded=0;" parent="nq3pK3IxwGkN9X3UR4hc-86" vertex="1">
          <mxGeometry x="58.02631578947369" y="65" width="30.947368421052634" height="16.774193548387096" as="geometry" />
        </mxCell>
        <mxCell id="nq3pK3IxwGkN9X3UR4hc-95" value="" style="endArrow=blockThin;html=1;exitX=0;exitY=0.25;exitDx=0;exitDy=0;endFill=1;" parent="1" source="nq3pK3IxwGkN9X3UR4hc-72" edge="1">
          <mxGeometry width="50" height="50" relative="1" as="geometry">
            <mxPoint x="620" y="1920" as="sourcePoint" />
            <mxPoint x="555" y="1933" as="targetPoint" />
          </mxGeometry>
        </mxCell>
        <mxCell id="nq3pK3IxwGkN9X3UR4hc-96" value="subscribe topics&lt;br&gt;request metadata/data&lt;br&gt;request keys" style="edgeLabel;html=1;align=center;verticalAlign=middle;resizable=0;points=[];" parent="nq3pK3IxwGkN9X3UR4hc-95" vertex="1" connectable="0">
          <mxGeometry x="0.1213" y="2" relative="1" as="geometry">
            <mxPoint x="6" y="-26" as="offset" />
          </mxGeometry>
        </mxCell>
        <mxCell id="nq3pK3IxwGkN9X3UR4hc-97" value="studyB" style="rounded=1;whiteSpace=wrap;html=1;" parent="1" vertex="1">
          <mxGeometry x="450" y="110" width="80" height="30" as="geometry" />
        </mxCell>
        <mxCell id="nq3pK3IxwGkN9X3UR4hc-98" value="" style="endArrow=none;html=1;exitX=0.25;exitY=1;exitDx=0;exitDy=0;entryX=0.5;entryY=0;entryDx=0;entryDy=0;endFill=0;" parent="1" source="nq3pK3IxwGkN9X3UR4hc-4" target="nq3pK3IxwGkN9X3UR4hc-97" edge="1">
          <mxGeometry width="50" height="50" relative="1" as="geometry">
            <mxPoint x="450" y="270" as="sourcePoint" />
            <mxPoint x="500" y="220" as="targetPoint" />
          </mxGeometry>
        </mxCell>
        <mxCell id="nq3pK3IxwGkN9X3UR4hc-99" value="studyA" style="rounded=1;whiteSpace=wrap;html=1;" parent="1" vertex="1">
          <mxGeometry x="450" y="775" width="80" height="30" as="geometry" />
        </mxCell>
        <mxCell id="nq3pK3IxwGkN9X3UR4hc-100" value="" style="endArrow=none;html=1;entryX=0.5;entryY=0;entryDx=0;entryDy=0;exitX=0.5;exitY=1;exitDx=0;exitDy=0;endFill=0;" parent="1" source="nq3pK3IxwGkN9X3UR4hc-25" target="nq3pK3IxwGkN9X3UR4hc-99" edge="1">
          <mxGeometry width="50" height="50" relative="1" as="geometry">
            <mxPoint x="410" y="790" as="sourcePoint" />
            <mxPoint x="460" y="740" as="targetPoint" />
          </mxGeometry>
        </mxCell>
        <mxCell id="nq3pK3IxwGkN9X3UR4hc-101" value="left_wrist" style="rounded=1;whiteSpace=wrap;html=1;" parent="1" vertex="1">
          <mxGeometry x="300" y="440" width="90" height="30" as="geometry" />
        </mxCell>
        <mxCell id="nq3pK3IxwGkN9X3UR4hc-102" style="edgeStyle=orthogonalEdgeStyle;rounded=0;orthogonalLoop=1;jettySize=auto;html=1;exitX=0.5;exitY=1;exitDx=0;exitDy=0;entryX=0.5;entryY=0;entryDx=0;entryDy=0;startArrow=none;startFill=0;endArrow=none;endFill=0;" parent="1" source="nq3pK3IxwGkN9X3UR4hc-103" target="nq3pK3IxwGkN9X3UR4hc-105" edge="1">
          <mxGeometry relative="1" as="geometry" />
        </mxCell>
        <mxCell id="nq3pK3IxwGkN9X3UR4hc-103" value="motion_sense" style="rounded=1;whiteSpace=wrap;html=1;" parent="1" vertex="1">
          <mxGeometry x="300" y="997.5" width="90" height="30" as="geometry" />
        </mxCell>
        <mxCell id="nq3pK3IxwGkN9X3UR4hc-104" value="phone" style="rounded=1;whiteSpace=wrap;html=1;" parent="1" vertex="1">
          <mxGeometry x="430" y="997.5" width="90" height="30" as="geometry" />
        </mxCell>
        <mxCell id="nq3pK3IxwGkN9X3UR4hc-105" value="left_wrist" style="rounded=1;whiteSpace=wrap;html=1;" parent="1" vertex="1">
          <mxGeometry x="300" y="1057.5" width="90" height="30" as="geometry" />
        </mxCell>
        <mxCell id="nq3pK3IxwGkN9X3UR4hc-106" value="" style="endArrow=none;html=1;exitX=0.5;exitY=0;exitDx=0;exitDy=0;entryX=0.5;entryY=1;entryDx=0;entryDy=0;" parent="1" source="nq3pK3IxwGkN9X3UR4hc-103" target="nq3pK3IxwGkN9X3UR4hc-28" edge="1">
          <mxGeometry width="50" height="50" relative="1" as="geometry">
            <mxPoint x="390" y="1090" as="sourcePoint" />
            <mxPoint x="440" y="1040" as="targetPoint" />
          </mxGeometry>
        </mxCell>
        <mxCell id="nq3pK3IxwGkN9X3UR4hc-107" value="" style="endArrow=none;html=1;exitX=0.5;exitY=1;exitDx=0;exitDy=0;entryX=0.5;entryY=0;entryDx=0;entryDy=0;" parent="1" source="nq3pK3IxwGkN9X3UR4hc-28" target="nq3pK3IxwGkN9X3UR4hc-104" edge="1">
          <mxGeometry width="50" height="50" relative="1" as="geometry">
            <mxPoint x="355" y="1007.5" as="sourcePoint" />
            <mxPoint x="420" y="965" as="targetPoint" />
          </mxGeometry>
        </mxCell>
        <mxCell id="nq3pK3IxwGkN9X3UR4hc-108" value="(attribute)" style="rounded=1;whiteSpace=wrap;html=1;" parent="1" vertex="1">
          <mxGeometry x="130" y="840" width="80" height="30" as="geometry" />
        </mxCell>
        <mxCell id="nq3pK3IxwGkN9X3UR4hc-109" value="(participant)" style="rounded=1;whiteSpace=wrap;html=1;" parent="1" vertex="1">
          <mxGeometry x="130" y="895" width="80" height="30" as="geometry" />
        </mxCell>
        <mxCell id="nq3pK3IxwGkN9X3UR4hc-110" value="(root)" style="rounded=1;whiteSpace=wrap;html=1;" parent="1" vertex="1">
          <mxGeometry x="130" y="690" width="80" height="30" as="geometry" />
        </mxCell>
        <mxCell id="nq3pK3IxwGkN9X3UR4hc-111" style="edgeStyle=orthogonalEdgeStyle;rounded=0;orthogonalLoop=1;jettySize=auto;html=1;exitX=0.5;exitY=1;exitDx=0;exitDy=0;entryX=0.5;entryY=0;entryDx=0;entryDy=0;endArrow=none;endFill=0;" parent="1" target="nq3pK3IxwGkN9X3UR4hc-113" edge="1">
          <mxGeometry relative="1" as="geometry">
            <mxPoint x="170" y="100" as="sourcePoint" />
          </mxGeometry>
        </mxCell>
        <mxCell id="nq3pK3IxwGkN9X3UR4hc-112" style="edgeStyle=orthogonalEdgeStyle;rounded=0;orthogonalLoop=1;jettySize=auto;html=1;exitX=0.5;exitY=1;exitDx=0;exitDy=0;entryX=0.5;entryY=0;entryDx=0;entryDy=0;startArrow=none;startFill=0;endArrow=none;endFill=0;" parent="1" source="nq3pK3IxwGkN9X3UR4hc-113" target="nq3pK3IxwGkN9X3UR4hc-115" edge="1">
          <mxGeometry relative="1" as="geometry" />
        </mxCell>
        <mxCell id="nq3pK3IxwGkN9X3UR4hc-113" value="(study)" style="rounded=1;whiteSpace=wrap;html=1;" parent="1" vertex="1">
          <mxGeometry x="130" y="150" width="80" height="30" as="geometry" />
        </mxCell>
        <mxCell id="nq3pK3IxwGkN9X3UR4hc-114" style="edgeStyle=orthogonalEdgeStyle;rounded=0;orthogonalLoop=1;jettySize=auto;html=1;exitX=0.5;exitY=1;exitDx=0;exitDy=0;endArrow=none;endFill=0;" parent="1" source="nq3pK3IxwGkN9X3UR4hc-115" target="nq3pK3IxwGkN9X3UR4hc-117" edge="1">
          <mxGeometry relative="1" as="geometry" />
        </mxCell>
        <mxCell id="nq3pK3IxwGkN9X3UR4hc-115" value="(participant)" style="rounded=1;whiteSpace=wrap;html=1;" parent="1" vertex="1">
          <mxGeometry x="130" y="220" width="80" height="30" as="geometry" />
        </mxCell>
        <mxCell id="nq3pK3IxwGkN9X3UR4hc-116" style="edgeStyle=orthogonalEdgeStyle;rounded=0;orthogonalLoop=1;jettySize=auto;html=1;exitX=0.5;exitY=1;exitDx=0;exitDy=0;entryX=0.5;entryY=0;entryDx=0;entryDy=0;endArrow=none;endFill=0;" parent="1" source="nq3pK3IxwGkN9X3UR4hc-117" target="nq3pK3IxwGkN9X3UR4hc-122" edge="1">
          <mxGeometry relative="1" as="geometry" />
        </mxCell>
        <mxCell id="nq3pK3IxwGkN9X3UR4hc-117" value="(sensor)" style="rounded=1;whiteSpace=wrap;html=1;" parent="1" vertex="1">
          <mxGeometry x="130" y="275" width="80" height="30" as="geometry" />
        </mxCell>
        <mxCell id="nq3pK3IxwGkN9X3UR4hc-118" value="(root)" style="rounded=1;whiteSpace=wrap;html=1;" parent="1" vertex="1">
          <mxGeometry x="130" y="70" width="80" height="30" as="geometry" />
        </mxCell>
        <mxCell id="nq3pK3IxwGkN9X3UR4hc-119" value="md2k" style="rounded=1;whiteSpace=wrap;html=1;" parent="1" vertex="1">
          <mxGeometry x="570" y="-10" width="80" height="30" as="geometry" />
        </mxCell>
        <mxCell id="nq3pK3IxwGkN9X3UR4hc-120" value="studyA" style="rounded=1;whiteSpace=wrap;html=1;" parent="1" vertex="1">
          <mxGeometry x="570" y="110" width="80" height="30" as="geometry" />
        </mxCell>
        <mxCell id="nq3pK3IxwGkN9X3UR4hc-121" style="edgeStyle=orthogonalEdgeStyle;rounded=0;orthogonalLoop=1;jettySize=auto;html=1;exitX=0.5;exitY=1;exitDx=0;exitDy=0;entryX=0.5;entryY=0;entryDx=0;entryDy=0;endArrow=none;endFill=0;" parent="1" source="nq3pK3IxwGkN9X3UR4hc-122" target="nq3pK3IxwGkN9X3UR4hc-123" edge="1">
          <mxGeometry relative="1" as="geometry" />
        </mxCell>
        <mxCell id="nq3pK3IxwGkN9X3UR4hc-122" value="(device-name)" style="rounded=1;whiteSpace=wrap;html=1;" parent="1" vertex="1">
          <mxGeometry x="130" y="340" width="80" height="30" as="geometry" />
        </mxCell>
        <mxCell id="nq3pK3IxwGkN9X3UR4hc-123" value="(attachment)" style="rounded=1;whiteSpace=wrap;html=1;" parent="1" vertex="1">
          <mxGeometry x="130" y="400" width="80" height="30" as="geometry" />
        </mxCell>
        <mxCell id="nq3pK3IxwGkN9X3UR4hc-124" value="" style="endArrow=none;html=1;entryX=0;entryY=0.5;entryDx=0;entryDy=0;exitX=1;exitY=1;exitDx=0;exitDy=0;exitPerimeter=0;" parent="1" source="nq3pK3IxwGkN9X3UR4hc-83" target="nq3pK3IxwGkN9X3UR4hc-74" edge="1">
          <mxGeometry width="50" height="50" relative="1" as="geometry">
            <mxPoint x="92" y="1922" as="sourcePoint" />
            <mxPoint x="222" y="2004" as="targetPoint" />
          </mxGeometry>
        </mxCell>
        <mxCell id="nq3pK3IxwGkN9X3UR4hc-125" value="MD2K&amp;nbsp;&lt;br&gt;data &lt;br&gt;streams" style="edgeLabel;html=1;align=left;verticalAlign=middle;resizable=0;points=[];" parent="nq3pK3IxwGkN9X3UR4hc-124" vertex="1" connectable="0">
          <mxGeometry x="-0.6269" y="1" relative="1" as="geometry">
            <mxPoint x="-52" y="6" as="offset" />
          </mxGeometry>
        </mxCell>
        <mxCell id="nq3pK3IxwGkN9X3UR4hc-126" value="get&lt;br&gt;metadata" style="edgeLabel;html=1;align=center;verticalAlign=middle;resizable=0;points=[];" parent="nq3pK3IxwGkN9X3UR4hc-124" vertex="1" connectable="0">
          <mxGeometry x="-0.2628" y="1" relative="1" as="geometry">
            <mxPoint x="25" y="17" as="offset" />
          </mxGeometry>
        </mxCell>
        <mxCell id="nq3pK3IxwGkN9X3UR4hc-127" value="&lt;font style=&quot;font-size: 10px&quot;&gt;DSU&lt;/font&gt;" style="shape=cylinder3;whiteSpace=wrap;html=1;boundedLbl=1;backgroundOutline=1;size=7.222329275948596;fillColor=#CCE5FF;" parent="1" vertex="1">
          <mxGeometry x="258" y="1892.81" width="30" height="30" as="geometry" />
        </mxCell>
        <mxCell id="nq3pK3IxwGkN9X3UR4hc-128" style="edgeStyle=orthogonalEdgeStyle;rounded=0;orthogonalLoop=1;jettySize=auto;html=1;exitX=1;exitY=0.5;exitDx=0;exitDy=0;entryX=0;entryY=0.5;entryDx=0;entryDy=0;entryPerimeter=0;endArrow=none;endFill=0;" parent="1" source="nq3pK3IxwGkN9X3UR4hc-129" target="nq3pK3IxwGkN9X3UR4hc-127" edge="1">
          <mxGeometry relative="1" as="geometry" />
        </mxCell>
        <mxCell id="nq3pK3IxwGkN9X3UR4hc-129" value="Data&lt;br&gt;Adaptor" style="rounded=0;whiteSpace=wrap;html=1;strokeColor=#666666;fillColor=#f5f5f5;fontColor=#333333;" parent="1" vertex="1">
          <mxGeometry x="149" y="1894.5" width="57" height="28.31" as="geometry" />
        </mxCell>
        <mxCell id="nq3pK3IxwGkN9X3UR4hc-130" value="&lt;p style=&quot;font-size: 9px&quot;&gt;&lt;font style=&quot;font-size: 9px ; line-height: 100%&quot;&gt;publish&lt;br&gt;&lt;/font&gt;&lt;font style=&quot;font-size: 9px ; line-height: 100%&quot;&gt;metadata&lt;br&gt;&lt;/font&gt;&lt;span&gt;and data&lt;/span&gt;&lt;/p&gt;" style="text;html=1;strokeColor=none;fillColor=none;align=center;verticalAlign=middle;whiteSpace=wrap;rounded=0;labelBackgroundColor=#ffffff;" parent="1" vertex="1">
          <mxGeometry x="212" y="1897.5" width="40" height="20" as="geometry" />
        </mxCell>
        <mxCell id="nq3pK3IxwGkN9X3UR4hc-131" value="" style="edgeStyle=orthogonalEdgeStyle;rounded=0;orthogonalLoop=1;jettySize=auto;html=1;exitX=1;exitY=0.5;exitDx=0;exitDy=0;exitPerimeter=0;endArrow=none;endFill=0;" parent="1" source="nq3pK3IxwGkN9X3UR4hc-83" target="nq3pK3IxwGkN9X3UR4hc-129" edge="1">
          <mxGeometry relative="1" as="geometry">
            <mxPoint x="95.58000000000004" y="1909.5" as="sourcePoint" />
            <mxPoint x="83.58000000000004" y="1994.5" as="targetPoint" />
          </mxGeometry>
        </mxCell>
        <mxCell id="nq3pK3IxwGkN9X3UR4hc-132" value="&lt;p style=&quot;font-size: 9px&quot;&gt;&lt;font style=&quot;font-size: 9px ; line-height: 100%&quot;&gt;request&lt;br&gt;&lt;/font&gt;&lt;font style=&quot;font-size: 9px ; line-height: 100%&quot;&gt;raw/derived&lt;br&gt;&lt;/font&gt;&lt;span&gt;data&lt;/span&gt;&lt;/p&gt;" style="text;html=1;strokeColor=none;fillColor=none;align=center;verticalAlign=middle;whiteSpace=wrap;rounded=0;labelBackgroundColor=#ffffff;" parent="1" vertex="1">
          <mxGeometry x="100" y="1899.5" width="40" height="20" as="geometry" />
        </mxCell>
        <mxCell id="nq3pK3IxwGkN9X3UR4hc-133" value="Subscriber" style="rounded=0;whiteSpace=wrap;html=1;strokeColor=#666666;fillColor=#f5f5f5;fontColor=#333333;" parent="1" vertex="1">
          <mxGeometry x="668" y="1924.5" width="67" height="28.31" as="geometry" />
        </mxCell>
        <mxCell id="nq3pK3IxwGkN9X3UR4hc-134" value="metadata/data" style="edgeLabel;html=1;align=center;verticalAlign=middle;resizable=0;points=[];rotation=0;" parent="1" vertex="1" connectable="0">
          <mxGeometry x="374.75097249143084" y="1915.4979200015557" as="geometry" />
        </mxCell>
        <mxCell id="nq3pK3IxwGkN9X3UR4hc-135" value="keys" style="edgeLabel;html=1;align=center;verticalAlign=middle;resizable=0;points=[];rotation=-20;" parent="1" vertex="1" connectable="0">
          <mxGeometry x="377.0023210006438" y="2035.995816506749" as="geometry" />
        </mxCell>
        <mxCell id="nq3pK3IxwGkN9X3UR4hc-136" value="advertise topics" style="edgeLabel;html=1;align=center;verticalAlign=middle;resizable=0;points=[];rotation=-20;" parent="1" vertex="1" connectable="0">
          <mxGeometry x="352.0023210006436" y="1954.995816506749" as="geometry" />
        </mxCell>
        <mxCell id="nq3pK3IxwGkN9X3UR4hc-137" value="" style="endArrow=classicThin;html=1;exitX=0.116;exitY=0.567;exitDx=0;exitDy=0;exitPerimeter=0;endFill=1;startArrow=classicThin;startFill=1;entryX=1;entryY=0.75;entryDx=0;entryDy=0;" parent="1" source="nq3pK3IxwGkN9X3UR4hc-87" target="nq3pK3IxwGkN9X3UR4hc-74" edge="1">
          <mxGeometry x="0.0589" y="-23" width="50" height="50" relative="1" as="geometry">
            <mxPoint x="444.16999999999985" y="1944.6599999999999" as="sourcePoint" />
            <mxPoint x="294.1529999999998" y="2004.7183100000002" as="targetPoint" />
            <mxPoint as="offset" />
          </mxGeometry>
        </mxCell>
        <mxCell id="nq3pK3IxwGkN9X3UR4hc-138" value="subscribe topics" style="edgeLabel;html=1;align=center;verticalAlign=middle;resizable=0;points=[];rotation=-20;" parent="1" vertex="1" connectable="0">
          <mxGeometry x="368.0023210006436" y="1981.495816506749" as="geometry" />
        </mxCell>
        <mxCell id="nq3pK3IxwGkN9X3UR4hc-139" value="state of topics" style="edgeLabel;html=1;align=center;verticalAlign=middle;resizable=0;points=[];rotation=-20;" parent="1" vertex="1" connectable="0">
          <mxGeometry x="378.0023210006436" y="1995.495816506749" as="geometry" />
        </mxCell>
        <mxCell id="nq3pK3IxwGkN9X3UR4hc-140" value="" style="rounded=0;whiteSpace=wrap;html=1;" parent="1" vertex="1">
          <mxGeometry x="-189" y="1270" width="1070" height="1133" as="geometry" />
        </mxCell>
        <mxCell id="nq3pK3IxwGkN9X3UR4hc-141" value="" style="rounded=0;whiteSpace=wrap;html=1;" parent="1" vertex="1">
          <mxGeometry x="40" y="-60" width="760" height="560" as="geometry" />
        </mxCell>
        <mxCell id="nq3pK3IxwGkN9X3UR4hc-142" style="edgeStyle=orthogonalEdgeStyle;rounded=0;orthogonalLoop=1;jettySize=auto;html=1;exitX=0.5;exitY=1;exitDx=0;exitDy=0;entryX=0.5;entryY=0;entryDx=0;entryDy=0;endArrow=none;endFill=0;" parent="1" source="nq3pK3IxwGkN9X3UR4hc-143" target="nq3pK3IxwGkN9X3UR4hc-144" edge="1">
          <mxGeometry relative="1" as="geometry" />
        </mxCell>
        <mxCell id="nq3pK3IxwGkN9X3UR4hc-143" value="all_study" style="rounded=1;whiteSpace=wrap;html=1;" parent="1" vertex="1">
          <mxGeometry x="570" y="40" width="80" height="30" as="geometry" />
        </mxCell>
        <mxCell id="nq3pK3IxwGkN9X3UR4hc-144" value="all_participant" style="rounded=1;whiteSpace=wrap;html=1;" parent="1" vertex="1">
          <mxGeometry x="570" y="170" width="80" height="30" as="geometry" />
        </mxCell>
        <mxCell id="nq3pK3IxwGkN9X3UR4hc-145" value="part-420" style="rounded=1;whiteSpace=wrap;html=1;" parent="1" vertex="1">
          <mxGeometry x="490" y="230" width="100" height="30" as="geometry" />
        </mxCell>
        <mxCell id="nq3pK3IxwGkN9X3UR4hc-146" value="accelerometer (acc)" style="rounded=1;whiteSpace=wrap;html=1;" parent="1" vertex="1">
          <mxGeometry x="350" y="310" width="120" height="30" as="geometry" />
        </mxCell>
        <mxCell id="nq3pK3IxwGkN9X3UR4hc-147" style="edgeStyle=orthogonalEdgeStyle;rounded=0;orthogonalLoop=1;jettySize=auto;html=1;exitX=0.5;exitY=1;exitDx=0;exitDy=0;entryX=0.5;entryY=0;entryDx=0;entryDy=0;startArrow=none;startFill=0;endArrow=none;endFill=0;" parent="1" source="nq3pK3IxwGkN9X3UR4hc-148" target="nq3pK3IxwGkN9X3UR4hc-240" edge="1">
          <mxGeometry relative="1" as="geometry" />
        </mxCell>
        <mxCell id="nq3pK3IxwGkN9X3UR4hc-148" value="motion_sense" style="rounded=1;whiteSpace=wrap;html=1;" parent="1" vertex="1">
          <mxGeometry x="300" y="380" width="90" height="30" as="geometry" />
        </mxCell>
        <mxCell id="nq3pK3IxwGkN9X3UR4hc-149" value="phone" style="rounded=1;whiteSpace=wrap;html=1;" parent="1" vertex="1">
          <mxGeometry x="430" y="380" width="90" height="30" as="geometry" />
        </mxCell>
        <mxCell id="nq3pK3IxwGkN9X3UR4hc-150" value="" style="endArrow=none;html=1;entryX=0.5;entryY=1;entryDx=0;entryDy=0;exitX=0.5;exitY=0;exitDx=0;exitDy=0;" parent="1" source="nq3pK3IxwGkN9X3UR4hc-148" target="nq3pK3IxwGkN9X3UR4hc-146" edge="1">
          <mxGeometry width="50" height="50" relative="1" as="geometry">
            <mxPoint x="390" y="400" as="sourcePoint" />
            <mxPoint x="440" y="350" as="targetPoint" />
          </mxGeometry>
        </mxCell>
        <mxCell id="nq3pK3IxwGkN9X3UR4hc-151" value="" style="endArrow=none;html=1;entryX=0.5;entryY=1;entryDx=0;entryDy=0;exitX=0.5;exitY=0;exitDx=0;exitDy=0;" parent="1" source="nq3pK3IxwGkN9X3UR4hc-149" target="nq3pK3IxwGkN9X3UR4hc-146" edge="1">
          <mxGeometry width="50" height="50" relative="1" as="geometry">
            <mxPoint x="355" y="390" as="sourcePoint" />
            <mxPoint x="420" y="350" as="targetPoint" />
          </mxGeometry>
        </mxCell>
        <mxCell id="nq3pK3IxwGkN9X3UR4hc-152" value="gyro" style="rounded=1;whiteSpace=wrap;html=1;" parent="1" vertex="1">
          <mxGeometry x="600" y="312.5" width="120" height="30" as="geometry" />
        </mxCell>
        <mxCell id="nq3pK3IxwGkN9X3UR4hc-153" value="" style="endArrow=none;html=1;entryX=0.5;entryY=1;entryDx=0;entryDy=0;exitX=0.5;exitY=0;exitDx=0;exitDy=0;" parent="1" source="nq3pK3IxwGkN9X3UR4hc-146" edge="1">
          <mxGeometry width="50" height="50" relative="1" as="geometry">
            <mxPoint x="355" y="390" as="sourcePoint" />
            <mxPoint x="540" y="260" as="targetPoint" />
          </mxGeometry>
        </mxCell>
        <mxCell id="nq3pK3IxwGkN9X3UR4hc-154" value="" style="endArrow=none;html=1;exitX=0.5;exitY=0;exitDx=0;exitDy=0;" parent="1" source="nq3pK3IxwGkN9X3UR4hc-152" edge="1">
          <mxGeometry width="50" height="50" relative="1" as="geometry">
            <mxPoint x="420" y="320" as="sourcePoint" />
            <mxPoint x="540" y="260" as="targetPoint" />
          </mxGeometry>
        </mxCell>
        <mxCell id="nq3pK3IxwGkN9X3UR4hc-155" value="" style="endArrow=none;html=1;exitX=0.5;exitY=0;exitDx=0;exitDy=0;entryX=0.5;entryY=1;entryDx=0;entryDy=0;" parent="1" source="nq3pK3IxwGkN9X3UR4hc-145" target="nq3pK3IxwGkN9X3UR4hc-144" edge="1">
          <mxGeometry width="50" height="50" relative="1" as="geometry">
            <mxPoint x="560" y="240" as="sourcePoint" />
            <mxPoint x="610" y="190" as="targetPoint" />
          </mxGeometry>
        </mxCell>
        <mxCell id="nq3pK3IxwGkN9X3UR4hc-156" value="part-141" style="rounded=1;whiteSpace=wrap;html=1;" parent="1" vertex="1">
          <mxGeometry x="640" y="230" width="100" height="30" as="geometry" />
        </mxCell>
        <mxCell id="nq3pK3IxwGkN9X3UR4hc-157" value="" style="endArrow=none;html=1;exitX=0.5;exitY=0;exitDx=0;exitDy=0;entryX=0.5;entryY=1;entryDx=0;entryDy=0;" parent="1" source="nq3pK3IxwGkN9X3UR4hc-156" target="nq3pK3IxwGkN9X3UR4hc-144" edge="1">
          <mxGeometry width="50" height="50" relative="1" as="geometry">
            <mxPoint x="550" y="240" as="sourcePoint" />
            <mxPoint x="590" y="200" as="targetPoint" />
          </mxGeometry>
        </mxCell>
        <mxCell id="nq3pK3IxwGkN9X3UR4hc-158" value="" style="rounded=0;whiteSpace=wrap;html=1;" parent="1" vertex="1">
          <mxGeometry x="40" y="660" width="760" height="455" as="geometry" />
        </mxCell>
        <mxCell id="nq3pK3IxwGkN9X3UR4hc-159" style="edgeStyle=orthogonalEdgeStyle;rounded=0;orthogonalLoop=1;jettySize=auto;html=1;exitX=0.5;exitY=1;exitDx=0;exitDy=0;entryX=0.5;entryY=0;entryDx=0;entryDy=0;endArrow=none;endFill=0;" parent="1" target="nq3pK3IxwGkN9X3UR4hc-161" edge="1">
          <mxGeometry relative="1" as="geometry">
            <mxPoint x="170" y="720" as="sourcePoint" />
          </mxGeometry>
        </mxCell>
        <mxCell id="nq3pK3IxwGkN9X3UR4hc-160" style="edgeStyle=orthogonalEdgeStyle;rounded=0;orthogonalLoop=1;jettySize=auto;html=1;exitX=0.5;exitY=1;exitDx=0;exitDy=0;entryX=0.5;entryY=0;entryDx=0;entryDy=0;endArrow=none;endFill=0;" parent="1" source="nq3pK3IxwGkN9X3UR4hc-161" edge="1">
          <mxGeometry relative="1" as="geometry">
            <mxPoint x="170" y="840" as="targetPoint" />
          </mxGeometry>
        </mxCell>
        <mxCell id="nq3pK3IxwGkN9X3UR4hc-161" value="(study)" style="rounded=1;whiteSpace=wrap;html=1;" parent="1" vertex="1">
          <mxGeometry x="130" y="770" width="80" height="30" as="geometry" />
        </mxCell>
        <mxCell id="nq3pK3IxwGkN9X3UR4hc-162" style="edgeStyle=orthogonalEdgeStyle;rounded=0;orthogonalLoop=1;jettySize=auto;html=1;exitX=0.5;exitY=1;exitDx=0;exitDy=0;entryX=0.5;entryY=0;entryDx=0;entryDy=0;endArrow=none;endFill=0;" parent="1" edge="1">
          <mxGeometry relative="1" as="geometry">
            <mxPoint x="170" y="870" as="sourcePoint" />
            <mxPoint x="170" y="900" as="targetPoint" />
          </mxGeometry>
        </mxCell>
        <mxCell id="nq3pK3IxwGkN9X3UR4hc-163" style="edgeStyle=orthogonalEdgeStyle;rounded=0;orthogonalLoop=1;jettySize=auto;html=1;exitX=0.5;exitY=1;exitDx=0;exitDy=0;entryX=0.5;entryY=0;entryDx=0;entryDy=0;endArrow=none;endFill=0;" parent="1" source="nq3pK3IxwGkN9X3UR4hc-164" target="nq3pK3IxwGkN9X3UR4hc-165" edge="1">
          <mxGeometry relative="1" as="geometry" />
        </mxCell>
        <mxCell id="nq3pK3IxwGkN9X3UR4hc-164" value="md2k" style="rounded=1;whiteSpace=wrap;html=1;" parent="1" vertex="1">
          <mxGeometry x="570" y="685" width="80" height="30" as="geometry" />
        </mxCell>
        <mxCell id="nq3pK3IxwGkN9X3UR4hc-165" value="studyA" style="rounded=1;whiteSpace=wrap;html=1;" parent="1" vertex="1">
          <mxGeometry x="570" y="775" width="80" height="30" as="geometry" />
        </mxCell>
        <mxCell id="nq3pK3IxwGkN9X3UR4hc-166" value="accelerometer (acc)" style="rounded=1;whiteSpace=wrap;html=1;" parent="1" vertex="1">
          <mxGeometry x="480" y="845" width="120" height="30" as="geometry" />
        </mxCell>
        <mxCell id="nq3pK3IxwGkN9X3UR4hc-167" value="&amp;nbsp;part-420" style="rounded=1;whiteSpace=wrap;html=1;" parent="1" vertex="1">
          <mxGeometry x="350" y="925" width="120" height="30" as="geometry" />
        </mxCell>
        <mxCell id="nq3pK3IxwGkN9X3UR4hc-168" style="edgeStyle=orthogonalEdgeStyle;rounded=0;orthogonalLoop=1;jettySize=auto;html=1;exitX=0.5;exitY=1;exitDx=0;exitDy=0;entryX=0.5;entryY=0;entryDx=0;entryDy=0;endArrow=none;endFill=0;" parent="1" edge="1">
          <mxGeometry relative="1" as="geometry">
            <mxPoint x="345" y="1025" as="sourcePoint" />
          </mxGeometry>
        </mxCell>
        <mxCell id="nq3pK3IxwGkN9X3UR4hc-169" style="edgeStyle=orthogonalEdgeStyle;rounded=0;orthogonalLoop=1;jettySize=auto;html=1;exitX=0.5;exitY=1;exitDx=0;exitDy=0;entryX=0.5;entryY=0;entryDx=0;entryDy=0;endArrow=none;endFill=0;" parent="1" edge="1">
          <mxGeometry relative="1" as="geometry">
            <mxPoint x="475" y="1025" as="sourcePoint" />
          </mxGeometry>
        </mxCell>
        <mxCell id="nq3pK3IxwGkN9X3UR4hc-170" value="part-141" style="rounded=1;whiteSpace=wrap;html=1;" parent="1" vertex="1">
          <mxGeometry x="600" y="927.5" width="120" height="30" as="geometry" />
        </mxCell>
        <mxCell id="nq3pK3IxwGkN9X3UR4hc-171" style="edgeStyle=orthogonalEdgeStyle;rounded=0;orthogonalLoop=1;jettySize=auto;html=1;exitX=0.5;exitY=1;exitDx=0;exitDy=0;entryX=0.5;entryY=0;entryDx=0;entryDy=0;endArrow=none;endFill=0;" parent="1" edge="1">
          <mxGeometry relative="1" as="geometry">
            <mxPoint x="725" y="1027.5" as="sourcePoint" />
          </mxGeometry>
        </mxCell>
        <mxCell id="nq3pK3IxwGkN9X3UR4hc-172" value="" style="endArrow=none;html=1;entryX=0.5;entryY=1;entryDx=0;entryDy=0;exitX=0.5;exitY=0;exitDx=0;exitDy=0;" parent="1" source="nq3pK3IxwGkN9X3UR4hc-167" edge="1">
          <mxGeometry width="50" height="50" relative="1" as="geometry">
            <mxPoint x="355" y="1005" as="sourcePoint" />
            <mxPoint x="540" y="875" as="targetPoint" />
          </mxGeometry>
        </mxCell>
        <mxCell id="nq3pK3IxwGkN9X3UR4hc-173" value="" style="endArrow=none;html=1;exitX=0.5;exitY=0;exitDx=0;exitDy=0;" parent="1" source="nq3pK3IxwGkN9X3UR4hc-170" edge="1">
          <mxGeometry width="50" height="50" relative="1" as="geometry">
            <mxPoint x="420" y="935" as="sourcePoint" />
            <mxPoint x="540" y="875" as="targetPoint" />
          </mxGeometry>
        </mxCell>
        <mxCell id="nq3pK3IxwGkN9X3UR4hc-174" value="" style="endArrow=none;html=1;exitX=0.5;exitY=0;exitDx=0;exitDy=0;entryX=0.5;entryY=1;entryDx=0;entryDy=0;" parent="1" source="nq3pK3IxwGkN9X3UR4hc-166" target="nq3pK3IxwGkN9X3UR4hc-165" edge="1">
          <mxGeometry width="50" height="50" relative="1" as="geometry">
            <mxPoint x="560" y="855" as="sourcePoint" />
            <mxPoint x="610" y="805" as="targetPoint" />
          </mxGeometry>
        </mxCell>
        <mxCell id="nq3pK3IxwGkN9X3UR4hc-175" value="gyro" style="rounded=1;whiteSpace=wrap;html=1;" parent="1" vertex="1">
          <mxGeometry x="640" y="845" width="100" height="30" as="geometry" />
        </mxCell>
        <mxCell id="nq3pK3IxwGkN9X3UR4hc-176" value="" style="endArrow=none;html=1;exitX=0.5;exitY=0;exitDx=0;exitDy=0;entryX=0.5;entryY=1;entryDx=0;entryDy=0;" parent="1" source="nq3pK3IxwGkN9X3UR4hc-175" target="nq3pK3IxwGkN9X3UR4hc-165" edge="1">
          <mxGeometry width="50" height="50" relative="1" as="geometry">
            <mxPoint x="550" y="855" as="sourcePoint" />
            <mxPoint x="590" y="815" as="targetPoint" />
          </mxGeometry>
        </mxCell>
        <mxCell id="nq3pK3IxwGkN9X3UR4hc-177" value="&lt;b&gt;RAW &lt;br&gt;STREAMS&lt;br&gt;&lt;br&gt;&lt;/b&gt;" style="shape=cylinder3;whiteSpace=wrap;html=1;boundedLbl=1;backgroundOutline=1;size=15;fillColor=#dae8fc;strokeColor=#6c8ebf;" parent="1" vertex="1">
          <mxGeometry x="110" y="1493" width="100" height="113.5" as="geometry" />
        </mxCell>
        <mxCell id="nq3pK3IxwGkN9X3UR4hc-178" value="Data storage&amp;nbsp;&lt;br&gt;unit (DSU)" style="shape=cylinder3;whiteSpace=wrap;html=1;boundedLbl=1;backgroundOutline=1;size=15;fillColor=#dae8fc;strokeColor=#6c8ebf;" parent="1" vertex="1">
          <mxGeometry x="490" y="1340" width="80" height="87.27" as="geometry" />
        </mxCell>
        <mxCell id="nq3pK3IxwGkN9X3UR4hc-179" style="edgeStyle=orthogonalEdgeStyle;rounded=0;orthogonalLoop=1;jettySize=auto;html=1;exitX=0.5;exitY=1;exitDx=0;exitDy=0;entryX=0.5;entryY=1;entryDx=0;entryDy=0;dashed=1;dashPattern=1 1;startArrow=none;startFill=0;endArrow=none;endFill=0;" parent="1" source="nq3pK3IxwGkN9X3UR4hc-180" target="nq3pK3IxwGkN9X3UR4hc-203" edge="1">
          <mxGeometry relative="1" as="geometry" />
        </mxCell>
        <mxCell id="nq3pK3IxwGkN9X3UR4hc-180" value="Policy Parser&lt;br&gt;(generate topics)" style="rounded=0;whiteSpace=wrap;html=1;fillColor=#f5f5f5;strokeColor=#666666;fontColor=#333333;" parent="1" vertex="1">
          <mxGeometry x="300" y="1669" width="120" height="60" as="geometry" />
        </mxCell>
        <mxCell id="nq3pK3IxwGkN9X3UR4hc-181" value="" style="endArrow=blockThin;html=1;entryX=0;entryY=0.5;entryDx=0;entryDy=0;exitX=1;exitY=0.5;exitDx=0;exitDy=0;endFill=1;" parent="1" source="nq3pK3IxwGkN9X3UR4hc-182" target="nq3pK3IxwGkN9X3UR4hc-180" edge="1">
          <mxGeometry width="50" height="50" relative="1" as="geometry">
            <mxPoint x="310" y="1779" as="sourcePoint" />
            <mxPoint x="360" y="1729" as="targetPoint" />
          </mxGeometry>
        </mxCell>
        <mxCell id="nq3pK3IxwGkN9X3UR4hc-182" value="&lt;b&gt;Policies&lt;br&gt;opt: Attributes&lt;/b&gt;" style="rounded=1;whiteSpace=wrap;html=1;" parent="1" vertex="1">
          <mxGeometry x="140" y="1679" width="111" height="40" as="geometry" />
        </mxCell>
        <mxCell id="nq3pK3IxwGkN9X3UR4hc-183" value="&lt;b&gt;ndnDataAdaptor&amp;nbsp; &amp;nbsp; &amp;nbsp; &amp;nbsp; &amp;nbsp; &amp;nbsp; &amp;nbsp; &amp;nbsp; &amp;nbsp; &amp;nbsp; &amp;nbsp; &amp;nbsp; &amp;nbsp; &amp;nbsp; &amp;nbsp; &amp;nbsp; &amp;nbsp; &amp;nbsp; &amp;nbsp; &amp;nbsp; &amp;nbsp; &amp;nbsp; &amp;nbsp; &amp;nbsp; &amp;nbsp; &amp;nbsp; &amp;nbsp; &amp;nbsp; &amp;nbsp; &amp;nbsp; &amp;nbsp; &amp;nbsp; &amp;nbsp; &amp;nbsp; &amp;nbsp; &amp;nbsp; &amp;nbsp; &amp;nbsp; &amp;nbsp; &amp;nbsp; &amp;nbsp; &amp;nbsp; &amp;nbsp; &amp;nbsp;&lt;br&gt;&lt;/b&gt;&lt;b&gt;&lt;br&gt;&lt;br&gt;&lt;br&gt;&lt;br&gt;&lt;br&gt;&lt;br&gt;&lt;br&gt;&lt;br&gt;&lt;br&gt;&lt;br&gt;&lt;br&gt;&lt;/b&gt;" style="rounded=0;whiteSpace=wrap;html=1;" parent="1" vertex="1">
          <mxGeometry x="270" y="1460" width="410" height="175" as="geometry" />
        </mxCell>
        <mxCell id="nq3pK3IxwGkN9X3UR4hc-184" style="edgeStyle=orthogonalEdgeStyle;rounded=0;orthogonalLoop=1;jettySize=auto;html=1;exitX=0;exitY=0.5;exitDx=0;exitDy=0;startArrow=blockThin;startFill=1;endArrow=blockThin;endFill=1;" parent="1" source="nq3pK3IxwGkN9X3UR4hc-186" target="nq3pK3IxwGkN9X3UR4hc-177" edge="1">
          <mxGeometry relative="1" as="geometry" />
        </mxCell>
        <mxCell id="nq3pK3IxwGkN9X3UR4hc-185" value="(3)&lt;br&gt;(query)" style="edgeLabel;html=1;align=center;verticalAlign=middle;resizable=0;points=[];" parent="nq3pK3IxwGkN9X3UR4hc-184" vertex="1" connectable="0">
          <mxGeometry x="0.3865" relative="1" as="geometry">
            <mxPoint x="7.5" y="-14.5" as="offset" />
          </mxGeometry>
        </mxCell>
        <mxCell id="nq3pK3IxwGkN9X3UR4hc-186" value="Data Processing&amp;nbsp;&lt;br&gt;Unit (DPU)" style="rounded=0;whiteSpace=wrap;html=1;dashed=1;fillColor=#f5f5f5;strokeColor=#666666;fontColor=#333333;" parent="1" vertex="1">
          <mxGeometry x="285" y="1529.5" width="105" height="40" as="geometry" />
        </mxCell>
        <mxCell id="nq3pK3IxwGkN9X3UR4hc-187" style="edgeStyle=orthogonalEdgeStyle;rounded=0;orthogonalLoop=1;jettySize=auto;html=1;exitX=0.5;exitY=0;exitDx=0;exitDy=0;startArrow=classic;startFill=1;endArrow=blockThin;endFill=1;" parent="1" source="nq3pK3IxwGkN9X3UR4hc-206" target="nq3pK3IxwGkN9X3UR4hc-205" edge="1">
          <mxGeometry relative="1" as="geometry">
            <mxPoint x="646.5" y="1514" as="targetPoint" />
          </mxGeometry>
        </mxCell>
        <mxCell id="nq3pK3IxwGkN9X3UR4hc-188" value="fetch data&lt;br&gt;&amp;nbsp;names" style="edgeLabel;html=1;align=center;verticalAlign=middle;resizable=0;points=[];" parent="nq3pK3IxwGkN9X3UR4hc-187" vertex="1" connectable="0">
          <mxGeometry x="0.2232" y="1" relative="1" as="geometry">
            <mxPoint x="1" y="47" as="offset" />
          </mxGeometry>
        </mxCell>
        <mxCell id="nq3pK3IxwGkN9X3UR4hc-189" style="edgeStyle=orthogonalEdgeStyle;rounded=0;orthogonalLoop=1;jettySize=auto;html=1;exitX=0;exitY=0.5;exitDx=0;exitDy=0;entryX=1;entryY=0.5;entryDx=0;entryDy=0;startArrow=blockThin;startFill=1;endArrow=blockThin;endFill=1;" parent="1" source="nq3pK3IxwGkN9X3UR4hc-198" target="nq3pK3IxwGkN9X3UR4hc-186" edge="1">
          <mxGeometry relative="1" as="geometry" />
        </mxCell>
        <mxCell id="nq3pK3IxwGkN9X3UR4hc-190" style="edgeStyle=orthogonalEdgeStyle;rounded=0;orthogonalLoop=1;jettySize=auto;html=1;exitX=0.5;exitY=0;exitDx=0;exitDy=0;entryX=0.5;entryY=1;entryDx=0;entryDy=0;entryPerimeter=0;startArrow=none;startFill=0;endArrow=blockThin;endFill=1;" parent="1" source="nq3pK3IxwGkN9X3UR4hc-198" target="nq3pK3IxwGkN9X3UR4hc-178" edge="1">
          <mxGeometry relative="1" as="geometry" />
        </mxCell>
        <mxCell id="nq3pK3IxwGkN9X3UR4hc-191" value="store encrypted&lt;br&gt;content&lt;br&gt;(6)" style="edgeLabel;html=1;align=center;verticalAlign=middle;resizable=0;points=[];" parent="nq3pK3IxwGkN9X3UR4hc-190" vertex="1" connectable="0">
          <mxGeometry x="-0.1197" relative="1" as="geometry">
            <mxPoint y="-20" as="offset" />
          </mxGeometry>
        </mxCell>
        <mxCell id="nq3pK3IxwGkN9X3UR4hc-192" style="edgeStyle=orthogonalEdgeStyle;rounded=0;orthogonalLoop=1;jettySize=auto;html=1;exitX=0.25;exitY=1;exitDx=0;exitDy=0;entryX=1;entryY=0.5;entryDx=0;entryDy=0;startArrow=blockThin;startFill=1;endArrow=blockThin;endFill=1;" parent="1" source="nq3pK3IxwGkN9X3UR4hc-198" target="nq3pK3IxwGkN9X3UR4hc-202" edge="1">
          <mxGeometry relative="1" as="geometry" />
        </mxCell>
        <mxCell id="nq3pK3IxwGkN9X3UR4hc-193" value="(4)&lt;br&gt;construct &lt;br&gt;data names" style="edgeLabel;html=1;align=center;verticalAlign=middle;resizable=0;points=[];" parent="nq3pK3IxwGkN9X3UR4hc-192" vertex="1" connectable="0">
          <mxGeometry x="-0.3248" y="2" relative="1" as="geometry">
            <mxPoint x="-32" y="-8" as="offset" />
          </mxGeometry>
        </mxCell>
        <mxCell id="nq3pK3IxwGkN9X3UR4hc-194" style="edgeStyle=orthogonalEdgeStyle;rounded=0;orthogonalLoop=1;jettySize=auto;html=1;exitX=0.75;exitY=1;exitDx=0;exitDy=0;entryX=0;entryY=0.5;entryDx=0;entryDy=0;startArrow=blockThin;startFill=1;endArrow=blockThin;endFill=1;" parent="1" source="nq3pK3IxwGkN9X3UR4hc-198" target="nq3pK3IxwGkN9X3UR4hc-203" edge="1">
          <mxGeometry relative="1" as="geometry">
            <mxPoint x="555" y="1556.5" as="sourcePoint" />
          </mxGeometry>
        </mxCell>
        <mxCell id="nq3pK3IxwGkN9X3UR4hc-195" value="(5)&lt;br&gt;Fetch&lt;br&gt;encryption&lt;br&gt;keys" style="edgeLabel;html=1;align=center;verticalAlign=middle;resizable=0;points=[];" parent="nq3pK3IxwGkN9X3UR4hc-194" vertex="1" connectable="0">
          <mxGeometry x="-0.2417" relative="1" as="geometry">
            <mxPoint x="3" as="offset" />
          </mxGeometry>
        </mxCell>
        <mxCell id="nq3pK3IxwGkN9X3UR4hc-196" style="edgeStyle=orthogonalEdgeStyle;rounded=0;orthogonalLoop=1;jettySize=auto;html=1;exitX=0.75;exitY=0;exitDx=0;exitDy=0;entryX=0.5;entryY=1;entryDx=0;entryDy=0;entryPerimeter=0;startArrow=none;startFill=0;endArrow=none;endFill=0;" parent="1" source="nq3pK3IxwGkN9X3UR4hc-198" target="nq3pK3IxwGkN9X3UR4hc-205" edge="1">
          <mxGeometry relative="1" as="geometry">
            <mxPoint x="564" y="1532.5" as="sourcePoint" />
            <Array as="points">
              <mxPoint x="555" y="1500" />
              <mxPoint x="646" y="1500" />
            </Array>
          </mxGeometry>
        </mxCell>
        <mxCell id="nq3pK3IxwGkN9X3UR4hc-197" value="(7)&lt;br&gt;store&amp;nbsp;&lt;br&gt;data names" style="edgeLabel;html=1;align=center;verticalAlign=middle;resizable=0;points=[];" parent="nq3pK3IxwGkN9X3UR4hc-196" vertex="1" connectable="0">
          <mxGeometry x="-0.4445" y="-1" relative="1" as="geometry">
            <mxPoint x="-12.5" y="5" as="offset" />
          </mxGeometry>
        </mxCell>
        <mxCell id="nq3pK3IxwGkN9X3UR4hc-198" value="&lt;b&gt;DataAdaptor&lt;br&gt;(engine)&lt;br&gt;&lt;/b&gt;" style="text;html=1;align=center;verticalAlign=middle;whiteSpace=wrap;rounded=0;strokeColor=#d6b656;fillColor=#fff2cc;" parent="1" vertex="1">
          <mxGeometry x="480" y="1532.5" width="100" height="35" as="geometry" />
        </mxCell>
        <mxCell id="nq3pK3IxwGkN9X3UR4hc-199" style="edgeStyle=orthogonalEdgeStyle;rounded=0;orthogonalLoop=1;jettySize=auto;html=1;exitX=1;exitY=0.5;exitDx=0;exitDy=0;startArrow=blockThin;startFill=1;endArrow=blockThin;endFill=1;" parent="1" source="nq3pK3IxwGkN9X3UR4hc-180" target="nq3pK3IxwGkN9X3UR4hc-198" edge="1">
          <mxGeometry relative="1" as="geometry">
            <mxPoint x="470" y="1590.5" as="sourcePoint" />
            <mxPoint x="530" y="1570" as="targetPoint" />
          </mxGeometry>
        </mxCell>
        <mxCell id="nq3pK3IxwGkN9X3UR4hc-200" value="(1) &lt;br&gt;get topic&lt;br&gt;name" style="edgeLabel;html=1;align=center;verticalAlign=middle;resizable=0;points=[];" parent="nq3pK3IxwGkN9X3UR4hc-199" vertex="1" connectable="0">
          <mxGeometry x="-0.4814" relative="1" as="geometry">
            <mxPoint y="-6" as="offset" />
          </mxGeometry>
        </mxCell>
        <mxCell id="nq3pK3IxwGkN9X3UR4hc-201" value="(2)&lt;br&gt;request &lt;br&gt;stream/s" style="edgeLabel;html=1;align=center;verticalAlign=middle;resizable=0;points=[];" parent="1" vertex="1" connectable="0">
          <mxGeometry x="437.9969111275925" y="1531.996671407368" as="geometry">
            <mxPoint x="1" y="-2" as="offset" />
          </mxGeometry>
        </mxCell>
        <mxCell id="nq3pK3IxwGkN9X3UR4hc-202" value="Name Tree" style="rounded=0;whiteSpace=wrap;html=1;fillColor=#dae8fc;strokeColor=#6c8ebf;" parent="1" vertex="1">
          <mxGeometry x="350" y="1580" width="53.5" height="45" as="geometry" />
        </mxCell>
        <mxCell id="nq3pK3IxwGkN9X3UR4hc-203" value="Access Manager" style="rounded=0;whiteSpace=wrap;html=1;strokeColor=#666666;fillColor=#f5f5f5;fontColor=#333333;" parent="1" vertex="1">
          <mxGeometry x="590" y="1669" width="120" height="60" as="geometry" />
        </mxCell>
        <mxCell id="nq3pK3IxwGkN9X3UR4hc-204" value="&lt;p style=&quot;line-height: 40%&quot;&gt;&lt;/p&gt;&lt;blockquote style=&quot;margin: 0 0 0 40px ; border: none ; padding: 0px&quot;&gt;&lt;/blockquote&gt;&lt;pre style=&quot;font-size: 8px&quot;&gt;- battery&lt;br&gt;- gyro&lt;br&gt;- accelerometer&lt;/pre&gt;&lt;blockquote style=&quot;margin: 0 0 0 40px ; border: none ; padding: 0px&quot;&gt;&lt;/blockquote&gt;&lt;p&gt;&lt;/p&gt;" style="text;html=1;strokeColor=none;fillColor=none;align=left;verticalAlign=middle;whiteSpace=wrap;rounded=0;" parent="1" vertex="1">
          <mxGeometry x="117" y="1562.5" width="83" height="45" as="geometry" />
        </mxCell>
        <mxCell id="nq3pK3IxwGkN9X3UR4hc-205" value="&lt;span&gt;&lt;br&gt;&lt;br&gt;substream&lt;/span&gt;&lt;br&gt;&lt;span&gt;metadata&lt;/span&gt;&lt;br&gt;" style="shape=card;whiteSpace=wrap;html=1;fillColor=#dae8fc;strokeColor=#6c8ebf;" parent="1" vertex="1">
          <mxGeometry x="615.75" y="1369" width="60" height="63.63" as="geometry" />
        </mxCell>
        <mxCell id="nq3pK3IxwGkN9X3UR4hc-206" value="Request&lt;br&gt;Handler" style="rounded=0;whiteSpace=wrap;html=1;fillColor=#f5f5f5;strokeColor=#666666;fontColor=#333333;" parent="1" vertex="1">
          <mxGeometry x="619" y="1580" width="53.5" height="45" as="geometry" />
        </mxCell>
        <mxCell id="nq3pK3IxwGkN9X3UR4hc-207" style="edgeStyle=orthogonalEdgeStyle;rounded=0;orthogonalLoop=1;jettySize=auto;html=1;exitX=1;exitY=0;exitDx=0;exitDy=57.9525;exitPerimeter=0;entryX=0;entryY=0.5;entryDx=0;entryDy=0;dashed=1;startArrow=blockThin;startFill=1;endArrow=blockThin;endFill=1;dashPattern=1 1;" parent="1" source="nq3pK3IxwGkN9X3UR4hc-178" target="nq3pK3IxwGkN9X3UR4hc-206" edge="1">
          <mxGeometry relative="1" as="geometry">
            <Array as="points">
              <mxPoint x="600" y="1398" />
              <mxPoint x="600" y="1603" />
            </Array>
          </mxGeometry>
        </mxCell>
        <mxCell id="nq3pK3IxwGkN9X3UR4hc-208" value="get data" style="edgeLabel;html=1;align=center;verticalAlign=middle;resizable=0;points=[];" parent="nq3pK3IxwGkN9X3UR4hc-207" vertex="1" connectable="0">
          <mxGeometry x="-0.2549" relative="1" as="geometry">
            <mxPoint y="14" as="offset" />
          </mxGeometry>
        </mxCell>
        <mxCell id="nq3pK3IxwGkN9X3UR4hc-209" value="&lt;b&gt;&amp;nbsp; mGuardServer&amp;nbsp; &amp;nbsp; &amp;nbsp; &amp;nbsp; &amp;nbsp; &amp;nbsp; &amp;nbsp; &amp;nbsp; &amp;nbsp; &amp;nbsp; &amp;nbsp; &amp;nbsp; &amp;nbsp; &amp;nbsp; &amp;nbsp; &amp;nbsp; &amp;nbsp; &amp;nbsp; &amp;nbsp; &amp;nbsp; &amp;nbsp; &amp;nbsp;&amp;nbsp;&lt;br&gt;&lt;br&gt;&lt;br&gt;&lt;br&gt;&lt;br&gt;&lt;br&gt;&lt;br&gt;&lt;br&gt;&lt;br&gt;&lt;br&gt;&lt;br&gt;&lt;br&gt;&lt;br&gt;&lt;br&gt;&lt;br&gt;&lt;/b&gt;" style="rounded=0;whiteSpace=wrap;html=1;" parent="1" vertex="1">
          <mxGeometry x="60" y="1870" width="250" height="210" as="geometry" />
        </mxCell>
        <mxCell id="nq3pK3IxwGkN9X3UR4hc-210" style="edgeStyle=orthogonalEdgeStyle;rounded=0;orthogonalLoop=1;jettySize=auto;html=1;exitX=0;exitY=0.75;exitDx=0;exitDy=0;entryX=0.929;entryY=0.57;entryDx=0;entryDy=0;entryPerimeter=0;startArrow=blockThin;startFill=1;endArrow=none;endFill=0;" parent="1" source="nq3pK3IxwGkN9X3UR4hc-211" target="nq3pK3IxwGkN9X3UR4hc-226" edge="1">
          <mxGeometry relative="1" as="geometry" />
        </mxCell>
        <mxCell id="nq3pK3IxwGkN9X3UR4hc-211" value="&lt;br&gt;&lt;br&gt;&lt;br&gt;&lt;br&gt;&lt;b&gt;&amp;nbsp;Data User&amp;nbsp; &amp;nbsp; &amp;nbsp; &amp;nbsp; &amp;nbsp; &amp;nbsp;&lt;/b&gt;" style="rounded=0;whiteSpace=wrap;html=1;" parent="1" vertex="1">
          <mxGeometry x="665" y="1919.5" width="75" height="60" as="geometry" />
        </mxCell>
        <mxCell id="nq3pK3IxwGkN9X3UR4hc-212" value="Access Manager" style="rounded=0;whiteSpace=wrap;html=1;strokeColor=#666666;fillColor=#f5f5f5;fontColor=#333333;" parent="1" vertex="1">
          <mxGeometry x="235" y="2042.69" width="67" height="28.31" as="geometry" />
        </mxCell>
        <mxCell id="nq3pK3IxwGkN9X3UR4hc-213" value="Publisher" style="rounded=0;whiteSpace=wrap;html=1;strokeColor=#666666;fillColor=#f5f5f5;fontColor=#333333;" parent="1" vertex="1">
          <mxGeometry x="235" y="1994.69" width="67" height="28.31" as="geometry" />
        </mxCell>
        <mxCell id="nq3pK3IxwGkN9X3UR4hc-214" value="" style="endArrow=classicThin;html=1;entryX=0.279;entryY=0.139;entryDx=0;entryDy=0;entryPerimeter=0;exitX=1;exitY=0.5;exitDx=0;exitDy=0;exitPerimeter=0;startArrow=classicThin;startFill=1;endFill=1;" parent="1" source="nq3pK3IxwGkN9X3UR4hc-266" target="nq3pK3IxwGkN9X3UR4hc-226" edge="1">
          <mxGeometry width="50" height="50" relative="1" as="geometry">
            <mxPoint x="293.25" y="1924.5" as="sourcePoint" />
            <mxPoint x="440.71067811865476" y="1995" as="targetPoint" />
          </mxGeometry>
        </mxCell>
        <mxCell id="nq3pK3IxwGkN9X3UR4hc-215" value="request for metadata/data" style="edgeLabel;html=1;align=center;verticalAlign=middle;resizable=0;points=[];rotation=0;" parent="nq3pK3IxwGkN9X3UR4hc-214" vertex="1" connectable="0">
          <mxGeometry x="-0.1335" y="2" relative="1" as="geometry">
            <mxPoint x="16" y="-7" as="offset" />
          </mxGeometry>
        </mxCell>
        <mxCell id="nq3pK3IxwGkN9X3UR4hc-218" value="" style="endArrow=none;html=1;exitX=0.101;exitY=0.319;exitDx=0;exitDy=0;exitPerimeter=0;endFill=0;startArrow=classicThin;startFill=1;entryX=0.659;entryY=0.001;entryDx=0;entryDy=0;entryPerimeter=0;" parent="1" source="nq3pK3IxwGkN9X3UR4hc-226" target="nq3pK3IxwGkN9X3UR4hc-213" edge="1">
          <mxGeometry x="0.0589" y="-23" width="50" height="50" relative="1" as="geometry">
            <mxPoint x="390" y="2050" as="sourcePoint" />
            <mxPoint x="440" y="2000" as="targetPoint" />
            <mxPoint as="offset" />
          </mxGeometry>
        </mxCell>
        <mxCell id="nq3pK3IxwGkN9X3UR4hc-219" value="" style="endArrow=classicThin;html=1;entryX=0.253;entryY=0.819;entryDx=0;entryDy=0;entryPerimeter=0;exitX=1;exitY=0.5;exitDx=0;exitDy=0;startArrow=classicThin;startFill=1;endFill=1;" parent="1" source="nq3pK3IxwGkN9X3UR4hc-212" target="nq3pK3IxwGkN9X3UR4hc-226" edge="1">
          <mxGeometry width="50" height="50" relative="1" as="geometry">
            <mxPoint x="410" y="2080" as="sourcePoint" />
            <mxPoint x="460" y="2030" as="targetPoint" />
          </mxGeometry>
        </mxCell>
        <mxCell id="nq3pK3IxwGkN9X3UR4hc-220" value="request for keys" style="edgeLabel;html=1;align=center;verticalAlign=middle;resizable=0;points=[];rotation=-20;" parent="nq3pK3IxwGkN9X3UR4hc-219" vertex="1" connectable="0">
          <mxGeometry x="-0.2952" y="2" relative="1" as="geometry">
            <mxPoint x="14" y="-13" as="offset" />
          </mxGeometry>
        </mxCell>
        <mxCell id="nq3pK3IxwGkN9X3UR4hc-221" value="state of topics&lt;br&gt;metadata/data, keys" style="edgeLabel;html=1;align=center;verticalAlign=middle;resizable=0;points=[];" parent="1" vertex="1" connectable="0">
          <mxGeometry x="609.9985347652589" y="1979.5010773737222" as="geometry" />
        </mxCell>
        <mxCell id="nq3pK3IxwGkN9X3UR4hc-223" value="" style="endArrow=none;html=1;exitX=0.5;exitY=0;exitDx=0;exitDy=0;" parent="1" source="nq3pK3IxwGkN9X3UR4hc-213" target="nq3pK3IxwGkN9X3UR4hc-266" edge="1">
          <mxGeometry width="50" height="50" relative="1" as="geometry">
            <mxPoint x="269" y="1990" as="sourcePoint" />
            <mxPoint x="266.5" y="1944.5" as="targetPoint" />
          </mxGeometry>
        </mxCell>
        <mxCell id="nq3pK3IxwGkN9X3UR4hc-224" value="get&amp;nbsp;&lt;br&gt;data/metadata" style="edgeLabel;html=1;align=center;verticalAlign=middle;resizable=0;points=[];" parent="nq3pK3IxwGkN9X3UR4hc-223" vertex="1" connectable="0">
          <mxGeometry x="0.0999" y="-2" relative="1" as="geometry">
            <mxPoint x="-2" as="offset" />
          </mxGeometry>
        </mxCell>
        <mxCell id="nq3pK3IxwGkN9X3UR4hc-225" value="" style="group" parent="1" vertex="1" connectable="0">
          <mxGeometry x="423" y="1890" width="147" height="130" as="geometry" />
        </mxCell>
        <mxCell id="nq3pK3IxwGkN9X3UR4hc-226" value="" style="ellipse;shape=cloud;whiteSpace=wrap;html=1;fillColor=#f9f7ed;strokeColor=#36393d;" parent="nq3pK3IxwGkN9X3UR4hc-225" vertex="1">
          <mxGeometry x="-5.188235294117647" width="147" height="130" as="geometry" />
        </mxCell>
        <mxCell id="nq3pK3IxwGkN9X3UR4hc-227" value="" style="image;html=1;image=img/lib/clip_art/networking/Router_Icon_128x128.png;" parent="nq3pK3IxwGkN9X3UR4hc-225" vertex="1">
          <mxGeometry x="34.81578947368421" y="79.04838709677419" width="15.473684210526317" height="18.032258064516128" as="geometry" />
        </mxCell>
        <mxCell id="nq3pK3IxwGkN9X3UR4hc-228" value="" style="image;html=1;image=img/lib/clip_art/networking/Router_Icon_128x128.png;" parent="nq3pK3IxwGkN9X3UR4hc-225" vertex="1">
          <mxGeometry x="73.5" y="23.903225806451616" width="15.473684210526317" height="18.032258064516128" as="geometry" />
        </mxCell>
        <mxCell id="nq3pK3IxwGkN9X3UR4hc-229" value="" style="image;html=1;image=img/lib/clip_art/networking/Router_Icon_128x128.png;" parent="nq3pK3IxwGkN9X3UR4hc-225" vertex="1">
          <mxGeometry x="96.71052631578948" y="85.96774193548387" width="15.473684210526317" height="18.032258064516128" as="geometry" />
        </mxCell>
        <mxCell id="nq3pK3IxwGkN9X3UR4hc-230" value="" style="endArrow=none;html=1;entryX=0;entryY=0.75;entryDx=0;entryDy=0;exitX=0.75;exitY=0;exitDx=0;exitDy=0;opacity=50;" parent="nq3pK3IxwGkN9X3UR4hc-225" source="nq3pK3IxwGkN9X3UR4hc-227" target="nq3pK3IxwGkN9X3UR4hc-228" edge="1">
          <mxGeometry width="50" height="50" relative="1" as="geometry">
            <mxPoint x="27.078947368421055" y="184.51612903225808" as="sourcePoint" />
            <mxPoint x="65.76315789473685" y="142.5806451612903" as="targetPoint" />
          </mxGeometry>
        </mxCell>
        <mxCell id="nq3pK3IxwGkN9X3UR4hc-231" value="" style="endArrow=none;html=1;exitX=1;exitY=0.75;exitDx=0;exitDy=0;entryX=0;entryY=0.5;entryDx=0;entryDy=0;opacity=50;" parent="nq3pK3IxwGkN9X3UR4hc-225" source="nq3pK3IxwGkN9X3UR4hc-227" target="nq3pK3IxwGkN9X3UR4hc-229" edge="1">
          <mxGeometry width="50" height="50" relative="1" as="geometry">
            <mxPoint x="96.71052631578948" y="159.3548387096774" as="sourcePoint" />
            <mxPoint x="135.39473684210526" y="117.41935483870968" as="targetPoint" />
          </mxGeometry>
        </mxCell>
        <mxCell id="nq3pK3IxwGkN9X3UR4hc-232" value="" style="endArrow=none;html=1;exitX=0.5;exitY=0;exitDx=0;exitDy=0;opacity=50;" parent="nq3pK3IxwGkN9X3UR4hc-225" source="nq3pK3IxwGkN9X3UR4hc-229" target="nq3pK3IxwGkN9X3UR4hc-228" edge="1">
          <mxGeometry width="50" height="50" relative="1" as="geometry">
            <mxPoint x="61.89473684210527" y="87.64516129032259" as="sourcePoint" />
            <mxPoint x="88.97368421052632" y="53.78225806451613" as="targetPoint" />
          </mxGeometry>
        </mxCell>
        <mxCell id="nq3pK3IxwGkN9X3UR4hc-233" value="ndn&lt;br&gt;Network&lt;br&gt;&lt;br&gt;" style="text;html=1;strokeColor=none;fillColor=none;align=center;verticalAlign=middle;whiteSpace=wrap;rounded=0;" parent="nq3pK3IxwGkN9X3UR4hc-225" vertex="1">
          <mxGeometry x="58.02631578947369" y="65" width="30.947368421052634" height="16.774193548387096" as="geometry" />
        </mxCell>
        <mxCell id="nq3pK3IxwGkN9X3UR4hc-234" value="" style="endArrow=blockThin;html=1;exitX=0;exitY=0.25;exitDx=0;exitDy=0;endFill=1;" parent="1" source="nq3pK3IxwGkN9X3UR4hc-211" edge="1">
          <mxGeometry width="50" height="50" relative="1" as="geometry">
            <mxPoint x="620" y="1920" as="sourcePoint" />
            <mxPoint x="555" y="1933" as="targetPoint" />
          </mxGeometry>
        </mxCell>
        <mxCell id="nq3pK3IxwGkN9X3UR4hc-235" value="subscribe topics&lt;br&gt;request metadata/data&lt;br&gt;request keys" style="edgeLabel;html=1;align=center;verticalAlign=middle;resizable=0;points=[];" parent="nq3pK3IxwGkN9X3UR4hc-234" vertex="1" connectable="0">
          <mxGeometry x="0.1213" y="2" relative="1" as="geometry">
            <mxPoint x="6" y="-26" as="offset" />
          </mxGeometry>
        </mxCell>
        <mxCell id="nq3pK3IxwGkN9X3UR4hc-236" value="studyB" style="rounded=1;whiteSpace=wrap;html=1;" parent="1" vertex="1">
          <mxGeometry x="450" y="110" width="80" height="30" as="geometry" />
        </mxCell>
        <mxCell id="nq3pK3IxwGkN9X3UR4hc-237" value="" style="endArrow=none;html=1;exitX=0.25;exitY=1;exitDx=0;exitDy=0;entryX=0.5;entryY=0;entryDx=0;entryDy=0;endFill=0;" parent="1" source="nq3pK3IxwGkN9X3UR4hc-143" target="nq3pK3IxwGkN9X3UR4hc-236" edge="1">
          <mxGeometry width="50" height="50" relative="1" as="geometry">
            <mxPoint x="450" y="270" as="sourcePoint" />
            <mxPoint x="500" y="220" as="targetPoint" />
          </mxGeometry>
        </mxCell>
        <mxCell id="nq3pK3IxwGkN9X3UR4hc-238" value="studyA" style="rounded=1;whiteSpace=wrap;html=1;" parent="1" vertex="1">
          <mxGeometry x="450" y="775" width="80" height="30" as="geometry" />
        </mxCell>
        <mxCell id="nq3pK3IxwGkN9X3UR4hc-239" value="" style="endArrow=none;html=1;entryX=0.5;entryY=0;entryDx=0;entryDy=0;exitX=0.5;exitY=1;exitDx=0;exitDy=0;endFill=0;" parent="1" source="nq3pK3IxwGkN9X3UR4hc-164" target="nq3pK3IxwGkN9X3UR4hc-238" edge="1">
          <mxGeometry width="50" height="50" relative="1" as="geometry">
            <mxPoint x="410" y="790" as="sourcePoint" />
            <mxPoint x="460" y="740" as="targetPoint" />
          </mxGeometry>
        </mxCell>
        <mxCell id="nq3pK3IxwGkN9X3UR4hc-240" value="left_wrist" style="rounded=1;whiteSpace=wrap;html=1;" parent="1" vertex="1">
          <mxGeometry x="300" y="440" width="90" height="30" as="geometry" />
        </mxCell>
        <mxCell id="nq3pK3IxwGkN9X3UR4hc-241" style="edgeStyle=orthogonalEdgeStyle;rounded=0;orthogonalLoop=1;jettySize=auto;html=1;exitX=0.5;exitY=1;exitDx=0;exitDy=0;entryX=0.5;entryY=0;entryDx=0;entryDy=0;startArrow=none;startFill=0;endArrow=none;endFill=0;" parent="1" source="nq3pK3IxwGkN9X3UR4hc-242" target="nq3pK3IxwGkN9X3UR4hc-244" edge="1">
          <mxGeometry relative="1" as="geometry" />
        </mxCell>
        <mxCell id="nq3pK3IxwGkN9X3UR4hc-242" value="motion_sense" style="rounded=1;whiteSpace=wrap;html=1;" parent="1" vertex="1">
          <mxGeometry x="300" y="997.5" width="90" height="30" as="geometry" />
        </mxCell>
        <mxCell id="nq3pK3IxwGkN9X3UR4hc-243" value="phone" style="rounded=1;whiteSpace=wrap;html=1;" parent="1" vertex="1">
          <mxGeometry x="430" y="997.5" width="90" height="30" as="geometry" />
        </mxCell>
        <mxCell id="nq3pK3IxwGkN9X3UR4hc-244" value="left_wrist" style="rounded=1;whiteSpace=wrap;html=1;" parent="1" vertex="1">
          <mxGeometry x="300" y="1057.5" width="90" height="30" as="geometry" />
        </mxCell>
        <mxCell id="nq3pK3IxwGkN9X3UR4hc-245" value="" style="endArrow=none;html=1;exitX=0.5;exitY=0;exitDx=0;exitDy=0;entryX=0.5;entryY=1;entryDx=0;entryDy=0;" parent="1" source="nq3pK3IxwGkN9X3UR4hc-242" target="nq3pK3IxwGkN9X3UR4hc-167" edge="1">
          <mxGeometry width="50" height="50" relative="1" as="geometry">
            <mxPoint x="390" y="1090" as="sourcePoint" />
            <mxPoint x="440" y="1040" as="targetPoint" />
          </mxGeometry>
        </mxCell>
        <mxCell id="nq3pK3IxwGkN9X3UR4hc-246" value="" style="endArrow=none;html=1;exitX=0.5;exitY=1;exitDx=0;exitDy=0;entryX=0.5;entryY=0;entryDx=0;entryDy=0;" parent="1" source="nq3pK3IxwGkN9X3UR4hc-167" target="nq3pK3IxwGkN9X3UR4hc-243" edge="1">
          <mxGeometry width="50" height="50" relative="1" as="geometry">
            <mxPoint x="355" y="1007.5" as="sourcePoint" />
            <mxPoint x="420" y="965" as="targetPoint" />
          </mxGeometry>
        </mxCell>
        <mxCell id="nq3pK3IxwGkN9X3UR4hc-247" value="(attribute)" style="rounded=1;whiteSpace=wrap;html=1;" parent="1" vertex="1">
          <mxGeometry x="130" y="840" width="80" height="30" as="geometry" />
        </mxCell>
        <mxCell id="nq3pK3IxwGkN9X3UR4hc-248" value="(participant)" style="rounded=1;whiteSpace=wrap;html=1;" parent="1" vertex="1">
          <mxGeometry x="130" y="895" width="80" height="30" as="geometry" />
        </mxCell>
        <mxCell id="nq3pK3IxwGkN9X3UR4hc-249" value="(root)" style="rounded=1;whiteSpace=wrap;html=1;" parent="1" vertex="1">
          <mxGeometry x="130" y="690" width="80" height="30" as="geometry" />
        </mxCell>
        <mxCell id="nq3pK3IxwGkN9X3UR4hc-250" style="edgeStyle=orthogonalEdgeStyle;rounded=0;orthogonalLoop=1;jettySize=auto;html=1;exitX=0.5;exitY=1;exitDx=0;exitDy=0;entryX=0.5;entryY=0;entryDx=0;entryDy=0;endArrow=none;endFill=0;" parent="1" target="nq3pK3IxwGkN9X3UR4hc-252" edge="1">
          <mxGeometry relative="1" as="geometry">
            <mxPoint x="170" y="100" as="sourcePoint" />
          </mxGeometry>
        </mxCell>
        <mxCell id="nq3pK3IxwGkN9X3UR4hc-251" style="edgeStyle=orthogonalEdgeStyle;rounded=0;orthogonalLoop=1;jettySize=auto;html=1;exitX=0.5;exitY=1;exitDx=0;exitDy=0;entryX=0.5;entryY=0;entryDx=0;entryDy=0;startArrow=none;startFill=0;endArrow=none;endFill=0;" parent="1" source="nq3pK3IxwGkN9X3UR4hc-252" target="nq3pK3IxwGkN9X3UR4hc-254" edge="1">
          <mxGeometry relative="1" as="geometry" />
        </mxCell>
        <mxCell id="nq3pK3IxwGkN9X3UR4hc-252" value="(study)" style="rounded=1;whiteSpace=wrap;html=1;" parent="1" vertex="1">
          <mxGeometry x="130" y="150" width="80" height="30" as="geometry" />
        </mxCell>
        <mxCell id="nq3pK3IxwGkN9X3UR4hc-253" style="edgeStyle=orthogonalEdgeStyle;rounded=0;orthogonalLoop=1;jettySize=auto;html=1;exitX=0.5;exitY=1;exitDx=0;exitDy=0;endArrow=none;endFill=0;" parent="1" source="nq3pK3IxwGkN9X3UR4hc-254" target="nq3pK3IxwGkN9X3UR4hc-256" edge="1">
          <mxGeometry relative="1" as="geometry" />
        </mxCell>
        <mxCell id="nq3pK3IxwGkN9X3UR4hc-254" value="(participant)" style="rounded=1;whiteSpace=wrap;html=1;" parent="1" vertex="1">
          <mxGeometry x="130" y="220" width="80" height="30" as="geometry" />
        </mxCell>
        <mxCell id="nq3pK3IxwGkN9X3UR4hc-255" style="edgeStyle=orthogonalEdgeStyle;rounded=0;orthogonalLoop=1;jettySize=auto;html=1;exitX=0.5;exitY=1;exitDx=0;exitDy=0;entryX=0.5;entryY=0;entryDx=0;entryDy=0;endArrow=none;endFill=0;" parent="1" source="nq3pK3IxwGkN9X3UR4hc-256" target="nq3pK3IxwGkN9X3UR4hc-261" edge="1">
          <mxGeometry relative="1" as="geometry" />
        </mxCell>
        <mxCell id="nq3pK3IxwGkN9X3UR4hc-256" value="(sensor)" style="rounded=1;whiteSpace=wrap;html=1;" parent="1" vertex="1">
          <mxGeometry x="130" y="275" width="80" height="30" as="geometry" />
        </mxCell>
        <mxCell id="nq3pK3IxwGkN9X3UR4hc-257" value="(root)" style="rounded=1;whiteSpace=wrap;html=1;" parent="1" vertex="1">
          <mxGeometry x="130" y="70" width="80" height="30" as="geometry" />
        </mxCell>
        <mxCell id="nq3pK3IxwGkN9X3UR4hc-258" value="md2k" style="rounded=1;whiteSpace=wrap;html=1;" parent="1" vertex="1">
          <mxGeometry x="570" y="-10" width="80" height="30" as="geometry" />
        </mxCell>
        <mxCell id="nq3pK3IxwGkN9X3UR4hc-259" value="studyA" style="rounded=1;whiteSpace=wrap;html=1;" parent="1" vertex="1">
          <mxGeometry x="570" y="110" width="80" height="30" as="geometry" />
        </mxCell>
        <mxCell id="nq3pK3IxwGkN9X3UR4hc-260" style="edgeStyle=orthogonalEdgeStyle;rounded=0;orthogonalLoop=1;jettySize=auto;html=1;exitX=0.5;exitY=1;exitDx=0;exitDy=0;entryX=0.5;entryY=0;entryDx=0;entryDy=0;endArrow=none;endFill=0;" parent="1" source="nq3pK3IxwGkN9X3UR4hc-261" target="nq3pK3IxwGkN9X3UR4hc-262" edge="1">
          <mxGeometry relative="1" as="geometry" />
        </mxCell>
        <mxCell id="nq3pK3IxwGkN9X3UR4hc-261" value="(device-name)" style="rounded=1;whiteSpace=wrap;html=1;" parent="1" vertex="1">
          <mxGeometry x="130" y="340" width="80" height="30" as="geometry" />
        </mxCell>
        <mxCell id="nq3pK3IxwGkN9X3UR4hc-262" value="(attachment)" style="rounded=1;whiteSpace=wrap;html=1;" parent="1" vertex="1">
          <mxGeometry x="130" y="400" width="80" height="30" as="geometry" />
        </mxCell>
        <mxCell id="nq3pK3IxwGkN9X3UR4hc-266" value="&lt;font style=&quot;font-size: 10px&quot;&gt;DSU&lt;/font&gt;" style="shape=cylinder3;whiteSpace=wrap;html=1;boundedLbl=1;backgroundOutline=1;size=7.222329275948596;fillColor=#CCE5FF;" parent="1" vertex="1">
          <mxGeometry x="253" y="1892.81" width="30" height="30" as="geometry" />
        </mxCell>
        <mxCell id="nq3pK3IxwGkN9X3UR4hc-267" style="edgeStyle=orthogonalEdgeStyle;rounded=0;orthogonalLoop=1;jettySize=auto;html=1;exitX=1;exitY=0.5;exitDx=0;exitDy=0;entryX=0;entryY=0.5;entryDx=0;entryDy=0;entryPerimeter=0;endArrow=none;endFill=0;startArrow=none;" parent="1" source="nq3pK3IxwGkN9X3UR4hc-269" target="nq3pK3IxwGkN9X3UR4hc-266" edge="1">
          <mxGeometry relative="1" as="geometry" />
        </mxCell>
        <mxCell id="FwhKlU1KMmOKfW833r3H-5" style="edgeStyle=orthogonalEdgeStyle;rounded=0;orthogonalLoop=1;jettySize=auto;html=1;exitX=0.5;exitY=1;exitDx=0;exitDy=0;endArrow=none;endFill=0;" edge="1" parent="1" source="nq3pK3IxwGkN9X3UR4hc-268" target="FwhKlU1KMmOKfW833r3H-1">
          <mxGeometry relative="1" as="geometry" />
        </mxCell>
        <mxCell id="FwhKlU1KMmOKfW833r3H-10" value="request&lt;br&gt;raw/derived data" style="edgeLabel;html=1;align=center;verticalAlign=middle;resizable=0;points=[];" vertex="1" connectable="0" parent="FwhKlU1KMmOKfW833r3H-5">
          <mxGeometry x="0.0355" y="-3" relative="1" as="geometry">
            <mxPoint y="-2" as="offset" />
          </mxGeometry>
        </mxCell>
        <mxCell id="nq3pK3IxwGkN9X3UR4hc-268" value="Data&lt;br&gt;Adaptor" style="rounded=0;whiteSpace=wrap;html=1;strokeColor=#666666;fillColor=#f5f5f5;fontColor=#333333;" parent="1" vertex="1">
          <mxGeometry x="86" y="1894.5" width="57" height="28.31" as="geometry" />
        </mxCell>
        <mxCell id="nq3pK3IxwGkN9X3UR4hc-272" value="Subscriber" style="rounded=0;whiteSpace=wrap;html=1;strokeColor=#666666;fillColor=#f5f5f5;fontColor=#333333;" parent="1" vertex="1">
          <mxGeometry x="668" y="1924.5" width="67" height="28.31" as="geometry" />
        </mxCell>
        <mxCell id="nq3pK3IxwGkN9X3UR4hc-273" value="metadata/data" style="edgeLabel;html=1;align=center;verticalAlign=middle;resizable=0;points=[];rotation=0;" parent="1" vertex="1" connectable="0">
          <mxGeometry x="374.75097249143084" y="1915.4979200015557" as="geometry" />
        </mxCell>
        <mxCell id="nq3pK3IxwGkN9X3UR4hc-274" value="keys" style="edgeLabel;html=1;align=center;verticalAlign=middle;resizable=0;points=[];rotation=-20;" parent="1" vertex="1" connectable="0">
          <mxGeometry x="377.0023210006438" y="2035.995816506749" as="geometry" />
        </mxCell>
        <mxCell id="nq3pK3IxwGkN9X3UR4hc-275" value="advertise topics" style="edgeLabel;html=1;align=center;verticalAlign=middle;resizable=0;points=[];rotation=-20;" parent="1" vertex="1" connectable="0">
          <mxGeometry x="352.0023210006436" y="1954.995816506749" as="geometry" />
        </mxCell>
        <mxCell id="nq3pK3IxwGkN9X3UR4hc-276" value="" style="endArrow=classicThin;html=1;exitX=0.116;exitY=0.567;exitDx=0;exitDy=0;exitPerimeter=0;endFill=1;startArrow=classicThin;startFill=1;entryX=1;entryY=0.75;entryDx=0;entryDy=0;" parent="1" source="nq3pK3IxwGkN9X3UR4hc-226" target="nq3pK3IxwGkN9X3UR4hc-213" edge="1">
          <mxGeometry x="0.0589" y="-23" width="50" height="50" relative="1" as="geometry">
            <mxPoint x="444.16999999999985" y="1944.6599999999999" as="sourcePoint" />
            <mxPoint x="294.1529999999998" y="2004.7183100000002" as="targetPoint" />
            <mxPoint as="offset" />
          </mxGeometry>
        </mxCell>
        <mxCell id="nq3pK3IxwGkN9X3UR4hc-277" value="subscribe topics" style="edgeLabel;html=1;align=center;verticalAlign=middle;resizable=0;points=[];rotation=-20;" parent="1" vertex="1" connectable="0">
          <mxGeometry x="368.0023210006436" y="1981.495816506749" as="geometry" />
        </mxCell>
        <mxCell id="nq3pK3IxwGkN9X3UR4hc-278" value="state of topics" style="edgeLabel;html=1;align=center;verticalAlign=middle;resizable=0;points=[];rotation=-20;" parent="1" vertex="1" connectable="0">
          <mxGeometry x="378.0023210006436" y="1995.495816506749" as="geometry" />
        </mxCell>
        <mxCell id="FwhKlU1KMmOKfW833r3H-1" value="" style="shape=cylinder3;whiteSpace=wrap;html=1;boundedLbl=1;backgroundOutline=1;size=6.730140686035156;fillColor=#dae8fc;strokeColor=#6c8ebf;" vertex="1" parent="1">
          <mxGeometry x="95" y="1992.25" width="39" height="40.75" as="geometry" />
        </mxCell>
        <mxCell id="FwhKlU1KMmOKfW833r3H-11" value="md2k&lt;br&gt;data streams" style="edgeLabel;html=1;align=center;verticalAlign=middle;resizable=0;points=[];" vertex="1" connectable="0" parent="1">
          <mxGeometry x="114.5" y="2048.25" as="geometry" />
        </mxCell>
        <mxCell id="nq3pK3IxwGkN9X3UR4hc-269" value="&lt;p style=&quot;font-size: 11px&quot;&gt;&lt;font style=&quot;font-size: 11px ; line-height: 100%&quot;&gt;publish&lt;br&gt;&lt;/font&gt;&lt;font style=&quot;font-size: 11px ; line-height: 100%&quot;&gt;metadata&lt;br&gt;&lt;/font&gt;&lt;span&gt;and data&lt;/span&gt;&lt;/p&gt;" style="text;html=1;strokeColor=none;fillColor=none;align=center;verticalAlign=middle;whiteSpace=wrap;rounded=0;labelBackgroundColor=#ffffff;" parent="1" vertex="1">
          <mxGeometry x="170" y="1897.5" width="60" height="20" as="geometry" />
        </mxCell>
        <mxCell id="FwhKlU1KMmOKfW833r3H-12" value="" style="edgeStyle=orthogonalEdgeStyle;rounded=0;orthogonalLoop=1;jettySize=auto;html=1;exitX=1;exitY=0.5;exitDx=0;exitDy=0;entryX=0;entryY=0.5;entryDx=0;entryDy=0;entryPerimeter=0;endArrow=none;endFill=0;" edge="1" parent="1" source="nq3pK3IxwGkN9X3UR4hc-268" target="nq3pK3IxwGkN9X3UR4hc-269">
          <mxGeometry relative="1" as="geometry">
            <mxPoint x="143" y="1908.6550000000002" as="sourcePoint" />
            <mxPoint x="258" y="1907.81" as="targetPoint" />
          </mxGeometry>
        </mxCell>
      </root>
    </mxGraphModel>
  </diagram>
</mxfile>
